solid OpenSCAD_Model
  facet normal 0 -0 -1
    outer loop
      vertex -30 30 -2.5
      vertex 30 30 -2.5
      vertex -45 0 -2.5
    endloop
  endfacet
  facet normal 0 -0 -1
    outer loop
      vertex 30 30 -2.5
      vertex 45 0 -2.5
      vertex -45 0 -2.5
    endloop
  endfacet
  facet normal 0 0 1
    outer loop
      vertex -45 0 2.5
      vertex 30 30 2.5
      vertex -30 30 2.5
    endloop
  endfacet
  facet normal 0 0 1
    outer loop
      vertex -45 0 2.5
      vertex 45 0 2.5
      vertex 30 30 2.5
    endloop
  endfacet
  facet normal 0 1 0
    outer loop
      vertex -30 30 -2.5
      vertex 30 30 2.5
      vertex 30 30 -2.5
    endloop
  endfacet
  facet normal 0 1 0
    outer loop
      vertex -30 30 -2.5
      vertex -30 30 2.5
      vertex 30 30 2.5
    endloop
  endfacet
  facet normal -0.894427 0.447214 0
    outer loop
      vertex -45 0 -2.5
      vertex -30 30 2.5
      vertex -30 30 -2.5
    endloop
  endfacet
  facet normal -0.894427 0.447214 0
    outer loop
      vertex -45 0 -2.5
      vertex -45 0 2.5
      vertex -30 30 2.5
    endloop
  endfacet
  facet normal 0 -1 0
    outer loop
      vertex 45 0 -2.5
      vertex -45 0 2.5
      vertex -45 0 -2.5
    endloop
  endfacet
  facet normal 0 -1 0
    outer loop
      vertex 45 0 -2.5
      vertex 45 0 2.5
      vertex -45 0 2.5
    endloop
  endfacet
  facet normal 0.894427 0.447214 0
    outer loop
      vertex 30 30 -2.5
      vertex 45 0 2.5
      vertex 45 0 -2.5
    endloop
  endfacet
  facet normal 0.894427 0.447214 -0
    outer loop
      vertex 30 30 -2.5
      vertex 30 30 2.5
      vertex 45 0 2.5
    endloop
  endfacet
endsolid OpenSCAD_Model
