solid OpenSCAD_Model
  facet normal -0.92388 -0.382683 0
    outer loop
      vertex -0.5 -9 0
      vertex -1.23223 -7.23223 3
      vertex -1.23223 -7.23223 0
    endloop
  endfacet
  facet normal -0.92388 -0.382683 0
    outer loop
      vertex -1.23223 -7.23223 3
      vertex -0.5 -9 0
      vertex -0.5 -9 3
    endloop
  endfacet
  facet normal 0.92388 -0.382683 0
    outer loop
      vertex -5.5 -9 3
      vertex -4.76777 -7.23223 0
      vertex -4.76777 -7.23223 3
    endloop
  endfacet
  facet normal 0.92388 -0.382683 0
    outer loop
      vertex -4.76777 -7.23223 0
      vertex -5.5 -9 3
      vertex -5.5 -9 0
    endloop
  endfacet
  facet normal -0.382683 0.92388 0
    outer loop
      vertex -1.23223 -10.7678 0
      vertex -3 -11.5 3
      vertex -1.23223 -10.7678 3
    endloop
  endfacet
  facet normal -0.382683 0.92388 0
    outer loop
      vertex -3 -11.5 3
      vertex -1.23223 -10.7678 0
      vertex -3 -11.5 0
    endloop
  endfacet
  facet normal 0.382683 -0.92388 0
    outer loop
      vertex -4.76777 -7.23223 0
      vertex -3 -6.5 3
      vertex -4.76777 -7.23223 3
    endloop
  endfacet
  facet normal 0.382683 -0.92388 0
    outer loop
      vertex -3 -6.5 3
      vertex -4.76777 -7.23223 0
      vertex -3 -6.5 0
    endloop
  endfacet
  facet normal -0.382683 -0.92388 0
    outer loop
      vertex -3 -6.5 0
      vertex -1.23223 -7.23223 3
      vertex -3 -6.5 3
    endloop
  endfacet
  facet normal -0.382683 -0.92388 -0
    outer loop
      vertex -1.23223 -7.23223 3
      vertex -3 -6.5 0
      vertex -1.23223 -7.23223 0
    endloop
  endfacet
  facet normal 0.92388 0.382683 0
    outer loop
      vertex -4.76777 -10.7678 3
      vertex -5.5 -9 0
      vertex -5.5 -9 3
    endloop
  endfacet
  facet normal 0.92388 0.382683 0
    outer loop
      vertex -5.5 -9 0
      vertex -4.76777 -10.7678 3
      vertex -4.76777 -10.7678 0
    endloop
  endfacet
  facet normal 0 0 -1
    outer loop
      vertex -3 6.5 0
      vertex 3 6.5 0
      vertex -3 -6.5 0
    endloop
  endfacet
  facet normal 0 0 -1
    outer loop
      vertex 1.23223 7.23223 0
      vertex -1.23223 7.23223 0
      vertex -0.5 9 0
    endloop
  endfacet
  facet normal 0 0 -1
    outer loop
      vertex 3 6.5 0
      vertex -3 6.5 0
      vertex 1.23223 7.23223 0
    endloop
  endfacet
  facet normal -0 0 -1
    outer loop
      vertex 1.23223 7.23223 0
      vertex -3 6.5 0
      vertex -1.23223 7.23223 0
    endloop
  endfacet
  facet normal 0 0 -1
    outer loop
      vertex -4.76777 -7.23223 0
      vertex -3 6.5 0
      vertex -3 -6.5 0
    endloop
  endfacet
  facet normal 0 0 -1
    outer loop
      vertex -4.76777 -7.23223 0
      vertex -4.76777 7.23223 0
      vertex -3 6.5 0
    endloop
  endfacet
  facet normal 0 0 -1
    outer loop
      vertex -7 -11 0
      vertex -4.76777 -7.23223 0
      vertex -5.5 -9 0
    endloop
  endfacet
  facet normal -0 0 -1
    outer loop
      vertex -4.76777 -7.23223 0
      vertex -7 -11 0
      vertex -4.76777 7.23223 0
    endloop
  endfacet
  facet normal 0 0 -1
    outer loop
      vertex 4.76777 7.23223 0
      vertex 7 11 0
      vertex 4.76777 -7.23223 0
    endloop
  endfacet
  facet normal 0 0 -1
    outer loop
      vertex 7 11 0
      vertex 4.76777 7.23223 0
      vertex 5.5 9 0
    endloop
  endfacet
  facet normal 0 0 -1
    outer loop
      vertex 3 -6.5 0
      vertex 4.76777 7.23223 0
      vertex 4.76777 -7.23223 0
    endloop
  endfacet
  facet normal 0 0 -1
    outer loop
      vertex 3 -6.5 0
      vertex 3 6.5 0
      vertex 4.76777 7.23223 0
    endloop
  endfacet
  facet normal 0 0 -1
    outer loop
      vertex -1.23223 -7.23223 0
      vertex 3 -6.5 0
      vertex 1.23223 -7.23223 0
    endloop
  endfacet
  facet normal 0 0 -1
    outer loop
      vertex -3 -6.5 0
      vertex 3 -6.5 0
      vertex -1.23223 -7.23223 0
    endloop
  endfacet
  facet normal 0 0 -1
    outer loop
      vertex -0.5 -9 0
      vertex 1.23223 -7.23223 0
      vertex 0.5 -9 0
    endloop
  endfacet
  facet normal 0 0 -1
    outer loop
      vertex -1.23223 -7.23223 0
      vertex 1.23223 -7.23223 0
      vertex -0.5 -9 0
    endloop
  endfacet
  facet normal 0 0 -1
    outer loop
      vertex 4.76777 -10.7678 0
      vertex 7 -11 0
      vertex 6.99605 -11.1256 0
    endloop
  endfacet
  facet normal 0 0 -1
    outer loop
      vertex 4.76777 -7.23223 0
      vertex 7 -11 0
      vertex 5.5 -9 0
    endloop
  endfacet
  facet normal 0 0 -1
    outer loop
      vertex 4.76777 -10.7678 0
      vertex 6.99605 -11.1256 0
      vertex 6.98423 -11.2507 0
    endloop
  endfacet
  facet normal 0 0 -1
    outer loop
      vertex 7 -11 0
      vertex 4.76777 -7.23223 0
      vertex 7 11 0
    endloop
  endfacet
  facet normal 0 0 -1
    outer loop
      vertex 4.76777 -10.7678 0
      vertex 6.98423 -11.2507 0
      vertex 6.96457 -11.3748 0
    endloop
  endfacet
  facet normal 0 0 -1
    outer loop
      vertex 4.76777 10.7678 0
      vertex 7 11 0
      vertex 5.5 9 0
    endloop
  endfacet
  facet normal 0 0 -1
    outer loop
      vertex 4.76777 -10.7678 0
      vertex 6.96457 -11.3748 0
      vertex 6.93717 -11.4974 0
    endloop
  endfacet
  facet normal -0 0 -1
    outer loop
      vertex 7 11 0
      vertex 4.76777 10.7678 0
      vertex 6.99605 11.1256 0
    endloop
  endfacet
  facet normal 0 0 -1
    outer loop
      vertex 4.76777 -10.7678 0
      vertex 6.93717 -11.4974 0
      vertex 6.90211 -11.618 0
    endloop
  endfacet
  facet normal -0 0 -1
    outer loop
      vertex 6.99605 11.1256 0
      vertex 4.76777 10.7678 0
      vertex 6.98423 11.2507 0
    endloop
  endfacet
  facet normal 0 0 -1
    outer loop
      vertex 4.76777 -10.7678 0
      vertex 6.90211 -11.618 0
      vertex 6.85955 -11.7362 0
    endloop
  endfacet
  facet normal -0 0 -1
    outer loop
      vertex 6.98423 11.2507 0
      vertex 4.76777 10.7678 0
      vertex 6.96457 11.3748 0
    endloop
  endfacet
  facet normal 0 0 -1
    outer loop
      vertex 4.76777 -10.7678 0
      vertex 6.85955 -11.7362 0
      vertex 6.80965 -11.8516 0
    endloop
  endfacet
  facet normal -0 0 -1
    outer loop
      vertex 6.96457 11.3748 0
      vertex 4.76777 10.7678 0
      vertex 6.93717 11.4974 0
    endloop
  endfacet
  facet normal 0 0 -1
    outer loop
      vertex 4.76777 -10.7678 0
      vertex 6.80965 -11.8516 0
      vertex 6.75261 -11.9635 0
    endloop
  endfacet
  facet normal -0 0 -1
    outer loop
      vertex 6.93717 11.4974 0
      vertex 4.76777 10.7678 0
      vertex 6.90211 11.618 0
    endloop
  endfacet
  facet normal 0 0 -1
    outer loop
      vertex 4.76777 -10.7678 0
      vertex 6.75261 -11.9635 0
      vertex 6.68865 -12.0717 0
    endloop
  endfacet
  facet normal -0 0 -1
    outer loop
      vertex 6.90211 11.618 0
      vertex 4.76777 10.7678 0
      vertex 6.85955 11.7362 0
    endloop
  endfacet
  facet normal 0 0 -1
    outer loop
      vertex 4.76777 -10.7678 0
      vertex 6.68865 -12.0717 0
      vertex 6.61803 -12.1756 0
    endloop
  endfacet
  facet normal -0 0 -1
    outer loop
      vertex 6.85955 11.7362 0
      vertex 4.76777 10.7678 0
      vertex 6.80965 11.8516 0
    endloop
  endfacet
  facet normal 0 0 -1
    outer loop
      vertex 4.76777 -10.7678 0
      vertex 6.61803 -12.1756 0
      vertex 6.54103 -12.2748 0
    endloop
  endfacet
  facet normal -0 0 -1
    outer loop
      vertex 6.80965 11.8516 0
      vertex 4.76777 10.7678 0
      vertex 6.75261 11.9635 0
    endloop
  endfacet
  facet normal 0 0 -1
    outer loop
      vertex 4.76777 -10.7678 0
      vertex 6.54103 -12.2748 0
      vertex 6.45794 -12.3691 0
    endloop
  endfacet
  facet normal -0 0 -1
    outer loop
      vertex 6.75261 11.9635 0
      vertex 4.76777 10.7678 0
      vertex 6.68865 12.0717 0
    endloop
  endfacet
  facet normal 0 0 -1
    outer loop
      vertex 4.76777 -10.7678 0
      vertex 6.45794 -12.3691 0
      vertex 6.36909 -12.4579 0
    endloop
  endfacet
  facet normal -0 0 -1
    outer loop
      vertex 6.68865 12.0717 0
      vertex 4.76777 10.7678 0
      vertex 6.61803 12.1756 0
    endloop
  endfacet
  facet normal 0 0 -1
    outer loop
      vertex 4.76777 -10.7678 0
      vertex 6.36909 -12.4579 0
      vertex 6.27485 -12.541 0
    endloop
  endfacet
  facet normal -0 0 -1
    outer loop
      vertex 6.61803 12.1756 0
      vertex 4.76777 10.7678 0
      vertex 6.54103 12.2748 0
    endloop
  endfacet
  facet normal 0 0 -1
    outer loop
      vertex 4.76777 -10.7678 0
      vertex 6.27485 -12.541 0
      vertex 6.17557 -12.618 0
    endloop
  endfacet
  facet normal -0 0 -1
    outer loop
      vertex 6.54103 12.2748 0
      vertex 4.76777 10.7678 0
      vertex 6.45794 12.3691 0
    endloop
  endfacet
  facet normal 0 0 -1
    outer loop
      vertex 4.76777 -10.7678 0
      vertex 6.17557 -12.618 0
      vertex 6.07165 -12.6887 0
    endloop
  endfacet
  facet normal -0 0 -1
    outer loop
      vertex 6.45794 12.3691 0
      vertex 4.76777 10.7678 0
      vertex 6.36909 12.4579 0
    endloop
  endfacet
  facet normal 0 0 -1
    outer loop
      vertex 4.76777 -10.7678 0
      vertex 6.07165 -12.6887 0
      vertex 5.96351 -12.7526 0
    endloop
  endfacet
  facet normal -0 0 -1
    outer loop
      vertex 6.36909 12.4579 0
      vertex 4.76777 10.7678 0
      vertex 6.27485 12.541 0
    endloop
  endfacet
  facet normal 0 0 -1
    outer loop
      vertex 4.76777 -10.7678 0
      vertex 5.96351 -12.7526 0
      vertex 5.85156 -12.8097 0
    endloop
  endfacet
  facet normal -0 0 -1
    outer loop
      vertex 6.27485 12.541 0
      vertex 4.76777 10.7678 0
      vertex 6.17557 12.618 0
    endloop
  endfacet
  facet normal 0 0 -1
    outer loop
      vertex 4.76777 -10.7678 0
      vertex 5.85156 -12.8097 0
      vertex 5.73625 -12.8596 0
    endloop
  endfacet
  facet normal -0 0 -1
    outer loop
      vertex 6.17557 12.618 0
      vertex 4.76777 10.7678 0
      vertex 6.07165 12.6887 0
    endloop
  endfacet
  facet normal 0 0 -1
    outer loop
      vertex 4.76777 -10.7678 0
      vertex 5.73625 -12.8596 0
      vertex 5.61803 -12.9021 0
    endloop
  endfacet
  facet normal -0 0 -1
    outer loop
      vertex 6.07165 12.6887 0
      vertex 4.76777 10.7678 0
      vertex 5.96351 12.7526 0
    endloop
  endfacet
  facet normal -0 0 -1
    outer loop
      vertex 5.96351 12.7526 0
      vertex 4.76777 10.7678 0
      vertex 5.85156 12.8097 0
    endloop
  endfacet
  facet normal 0 0 -1
    outer loop
      vertex 4.76777 -10.7678 0
      vertex 5.61803 -12.9021 0
      vertex 5.49738 -12.9372 0
    endloop
  endfacet
  facet normal 0 0 -1
    outer loop
      vertex 4.76777 -10.7678 0
      vertex 5.49738 -12.9372 0
      vertex 5.37476 -12.9646 0
    endloop
  endfacet
  facet normal 0 0 -1
    outer loop
      vertex 4.76777 -10.7678 0
      vertex 5.37476 -12.9646 0
      vertex 5.25067 -12.9842 0
    endloop
  endfacet
  facet normal 0 0 -1
    outer loop
      vertex 4.76777 -10.7678 0
      vertex 5.25067 -12.9842 0
      vertex 5.12558 -12.9961 0
    endloop
  endfacet
  facet normal 0 0 -1
    outer loop
      vertex 4.76777 -10.7678 0
      vertex 5.12558 -12.9961 0
      vertex 5 -13 0
    endloop
  endfacet
  facet normal 0 0 -1
    outer loop
      vertex 7 -11 0
      vertex 4.76777 -10.7678 0
      vertex 5.5 -9 0
    endloop
  endfacet
  facet normal 0 0 -1
    outer loop
      vertex 5 -13 0
      vertex 3 -11.5 0
      vertex 4.76777 -10.7678 0
    endloop
  endfacet
  facet normal 0 0 -1
    outer loop
      vertex -3 -11.5 0
      vertex 3 -11.5 0
      vertex 5 -13 0
    endloop
  endfacet
  facet normal 0 0 -1
    outer loop
      vertex 3 -6.5 0
      vertex -3 -6.5 0
      vertex 3 6.5 0
    endloop
  endfacet
  facet normal 0 0 -1
    outer loop
      vertex 1.23223 -10.7678 0
      vertex -0.5 -9 0
      vertex 0.5 -9 0
    endloop
  endfacet
  facet normal 0 0 -1
    outer loop
      vertex 1.23223 -10.7678 0
      vertex -1.23223 -10.7678 0
      vertex -0.5 -9 0
    endloop
  endfacet
  facet normal 0 0 -1
    outer loop
      vertex 3 -11.5 0
      vertex -3 -11.5 0
      vertex 1.23223 -10.7678 0
    endloop
  endfacet
  facet normal -0 0 -1
    outer loop
      vertex 1.23223 -10.7678 0
      vertex -3 -11.5 0
      vertex -1.23223 -10.7678 0
    endloop
  endfacet
  facet normal 0 0 -1
    outer loop
      vertex -5 -13 0
      vertex -3 -11.5 0
      vertex 5 -13 0
    endloop
  endfacet
  facet normal 0 0 -1
    outer loop
      vertex -5 -13 0
      vertex -4.76777 -10.7678 0
      vertex -3 -11.5 0
    endloop
  endfacet
  facet normal 0 0 -1
    outer loop
      vertex -5.12558 -12.9961 0
      vertex -4.76777 -10.7678 0
      vertex -5 -13 0
    endloop
  endfacet
  facet normal 0 0 -1
    outer loop
      vertex -5.25067 -12.9842 0
      vertex -4.76777 -10.7678 0
      vertex -5.12558 -12.9961 0
    endloop
  endfacet
  facet normal 0 0 -1
    outer loop
      vertex -5.37476 -12.9646 0
      vertex -4.76777 -10.7678 0
      vertex -5.25067 -12.9842 0
    endloop
  endfacet
  facet normal 0 0 -1
    outer loop
      vertex -5.49738 -12.9372 0
      vertex -4.76777 -10.7678 0
      vertex -5.37476 -12.9646 0
    endloop
  endfacet
  facet normal 0 0 -1
    outer loop
      vertex -5.61803 -12.9021 0
      vertex -4.76777 -10.7678 0
      vertex -5.49738 -12.9372 0
    endloop
  endfacet
  facet normal -0 0 -1
    outer loop
      vertex -4.76777 -10.7678 0
      vertex -7 -11 0
      vertex -5.5 -9 0
    endloop
  endfacet
  facet normal 0 0 -1
    outer loop
      vertex -5.73625 -12.8596 0
      vertex -4.76777 -10.7678 0
      vertex -5.61803 -12.9021 0
    endloop
  endfacet
  facet normal -0 0 -1
    outer loop
      vertex 5.85156 12.8097 0
      vertex 4.76777 10.7678 0
      vertex 5.73625 12.8596 0
    endloop
  endfacet
  facet normal -0 0 -1
    outer loop
      vertex 5.73625 12.8596 0
      vertex 4.76777 10.7678 0
      vertex 5.61803 12.9021 0
    endloop
  endfacet
  facet normal -0 0 -1
    outer loop
      vertex 5.61803 12.9021 0
      vertex 4.76777 10.7678 0
      vertex 5.49738 12.9372 0
    endloop
  endfacet
  facet normal -0 0 -1
    outer loop
      vertex 5.49738 12.9372 0
      vertex 4.76777 10.7678 0
      vertex 5.37476 12.9646 0
    endloop
  endfacet
  facet normal -0 0 -1
    outer loop
      vertex 5.37476 12.9646 0
      vertex 4.76777 10.7678 0
      vertex 5.25067 12.9842 0
    endloop
  endfacet
  facet normal -0 0 -1
    outer loop
      vertex 5.25067 12.9842 0
      vertex 4.76777 10.7678 0
      vertex 5.12558 12.9961 0
    endloop
  endfacet
  facet normal -0 0 -1
    outer loop
      vertex 5.12558 12.9961 0
      vertex 4.76777 10.7678 0
      vertex 5 13 0
    endloop
  endfacet
  facet normal 0 0 -1
    outer loop
      vertex 3 11.5 0
      vertex 5 13 0
      vertex 4.76777 10.7678 0
    endloop
  endfacet
  facet normal 0 0 -1
    outer loop
      vertex -3 11.5 0
      vertex 3 11.5 0
      vertex 1.23223 10.7678 0
    endloop
  endfacet
  facet normal 0 0 -1
    outer loop
      vertex 1.23223 7.23223 0
      vertex -0.5 9 0
      vertex 0.5 9 0
    endloop
  endfacet
  facet normal 0 0 -1
    outer loop
      vertex -0.5 9 0
      vertex 1.23223 10.7678 0
      vertex 0.5 9 0
    endloop
  endfacet
  facet normal 0 0 -1
    outer loop
      vertex -1.23223 10.7678 0
      vertex 1.23223 10.7678 0
      vertex -0.5 9 0
    endloop
  endfacet
  facet normal 0 0 -1
    outer loop
      vertex -3 11.5 0
      vertex 1.23223 10.7678 0
      vertex -1.23223 10.7678 0
    endloop
  endfacet
  facet normal 0 0 -1
    outer loop
      vertex 3 11.5 0
      vertex -3 11.5 0
      vertex 5 13 0
    endloop
  endfacet
  facet normal 0 0 -1
    outer loop
      vertex -3 11.5 0
      vertex -5 13 0
      vertex 5 13 0
    endloop
  endfacet
  facet normal 0 0 -1
    outer loop
      vertex -4.76777 10.7678 0
      vertex -5 13 0
      vertex -3 11.5 0
    endloop
  endfacet
  facet normal 0 0 -1
    outer loop
      vertex -4.76777 10.7678 0
      vertex -5.12558 12.9961 0
      vertex -5 13 0
    endloop
  endfacet
  facet normal 0 0 -1
    outer loop
      vertex -4.76777 10.7678 0
      vertex -5.25067 12.9842 0
      vertex -5.12558 12.9961 0
    endloop
  endfacet
  facet normal 0 0 -1
    outer loop
      vertex -4.76777 10.7678 0
      vertex -5.37476 12.9646 0
      vertex -5.25067 12.9842 0
    endloop
  endfacet
  facet normal 0 0 -1
    outer loop
      vertex -4.76777 10.7678 0
      vertex -5.49738 12.9372 0
      vertex -5.37476 12.9646 0
    endloop
  endfacet
  facet normal 0 0 -1
    outer loop
      vertex -7 11 0
      vertex -4.76777 10.7678 0
      vertex -5.5 9 0
    endloop
  endfacet
  facet normal 0 0 -1
    outer loop
      vertex -7 11 0
      vertex -4.76777 7.23223 0
      vertex -7 -11 0
    endloop
  endfacet
  facet normal 0 0 -1
    outer loop
      vertex -4.76777 7.23223 0
      vertex -7 11 0
      vertex -5.5 9 0
    endloop
  endfacet
  facet normal 0 0 -1
    outer loop
      vertex -5.85156 -12.8097 0
      vertex -4.76777 -10.7678 0
      vertex -5.73625 -12.8596 0
    endloop
  endfacet
  facet normal 0 -0 -1
    outer loop
      vertex -6.99605 11.1256 0
      vertex -4.76777 10.7678 0
      vertex -7 11 0
    endloop
  endfacet
  facet normal 0 0 -1
    outer loop
      vertex -5.96351 -12.7526 0
      vertex -4.76777 -10.7678 0
      vertex -5.85156 -12.8097 0
    endloop
  endfacet
  facet normal 0 0 -1
    outer loop
      vertex -4.76777 10.7678 0
      vertex -5.61803 12.9021 0
      vertex -5.49738 12.9372 0
    endloop
  endfacet
  facet normal 0 0 -1
    outer loop
      vertex -6.07165 -12.6887 0
      vertex -4.76777 -10.7678 0
      vertex -5.96351 -12.7526 0
    endloop
  endfacet
  facet normal 0 0 -1
    outer loop
      vertex -4.76777 10.7678 0
      vertex -5.73625 12.8596 0
      vertex -5.61803 12.9021 0
    endloop
  endfacet
  facet normal 0 0 -1
    outer loop
      vertex -6.17557 -12.618 0
      vertex -4.76777 -10.7678 0
      vertex -6.07165 -12.6887 0
    endloop
  endfacet
  facet normal 0 0 -1
    outer loop
      vertex -4.76777 10.7678 0
      vertex -5.85156 12.8097 0
      vertex -5.73625 12.8596 0
    endloop
  endfacet
  facet normal 0 0 -1
    outer loop
      vertex -6.27485 -12.541 0
      vertex -4.76777 -10.7678 0
      vertex -6.17557 -12.618 0
    endloop
  endfacet
  facet normal 0 0 -1
    outer loop
      vertex -4.76777 10.7678 0
      vertex -5.96351 12.7526 0
      vertex -5.85156 12.8097 0
    endloop
  endfacet
  facet normal 0 0 -1
    outer loop
      vertex -6.36909 -12.4579 0
      vertex -4.76777 -10.7678 0
      vertex -6.27485 -12.541 0
    endloop
  endfacet
  facet normal 0 0 -1
    outer loop
      vertex -4.76777 10.7678 0
      vertex -6.07165 12.6887 0
      vertex -5.96351 12.7526 0
    endloop
  endfacet
  facet normal 0 0 -1
    outer loop
      vertex -6.45794 -12.3691 0
      vertex -4.76777 -10.7678 0
      vertex -6.36909 -12.4579 0
    endloop
  endfacet
  facet normal 0 0 -1
    outer loop
      vertex -4.76777 10.7678 0
      vertex -6.17557 12.618 0
      vertex -6.07165 12.6887 0
    endloop
  endfacet
  facet normal 0 0 -1
    outer loop
      vertex -6.54103 -12.2748 0
      vertex -4.76777 -10.7678 0
      vertex -6.45794 -12.3691 0
    endloop
  endfacet
  facet normal 0 0 -1
    outer loop
      vertex -4.76777 10.7678 0
      vertex -6.27485 12.541 0
      vertex -6.17557 12.618 0
    endloop
  endfacet
  facet normal 0 0 -1
    outer loop
      vertex -6.61803 -12.1756 0
      vertex -4.76777 -10.7678 0
      vertex -6.54103 -12.2748 0
    endloop
  endfacet
  facet normal 0 0 -1
    outer loop
      vertex -4.76777 10.7678 0
      vertex -6.36909 12.4579 0
      vertex -6.27485 12.541 0
    endloop
  endfacet
  facet normal 0 0 -1
    outer loop
      vertex -6.68865 -12.0717 0
      vertex -4.76777 -10.7678 0
      vertex -6.61803 -12.1756 0
    endloop
  endfacet
  facet normal 0 0 -1
    outer loop
      vertex -4.76777 10.7678 0
      vertex -6.45794 12.3691 0
      vertex -6.36909 12.4579 0
    endloop
  endfacet
  facet normal 0 0 -1
    outer loop
      vertex -6.75261 -11.9635 0
      vertex -4.76777 -10.7678 0
      vertex -6.68865 -12.0717 0
    endloop
  endfacet
  facet normal 0 0 -1
    outer loop
      vertex -4.76777 10.7678 0
      vertex -6.54103 12.2748 0
      vertex -6.45794 12.3691 0
    endloop
  endfacet
  facet normal 0 0 -1
    outer loop
      vertex -6.80965 -11.8516 0
      vertex -4.76777 -10.7678 0
      vertex -6.75261 -11.9635 0
    endloop
  endfacet
  facet normal 0 0 -1
    outer loop
      vertex -4.76777 10.7678 0
      vertex -6.61803 12.1756 0
      vertex -6.54103 12.2748 0
    endloop
  endfacet
  facet normal 0 0 -1
    outer loop
      vertex -6.85955 -11.7362 0
      vertex -4.76777 -10.7678 0
      vertex -6.80965 -11.8516 0
    endloop
  endfacet
  facet normal 0 0 -1
    outer loop
      vertex -4.76777 10.7678 0
      vertex -6.68865 12.0717 0
      vertex -6.61803 12.1756 0
    endloop
  endfacet
  facet normal 0 0 -1
    outer loop
      vertex -6.90211 -11.618 0
      vertex -4.76777 -10.7678 0
      vertex -6.85955 -11.7362 0
    endloop
  endfacet
  facet normal 0 0 -1
    outer loop
      vertex -4.76777 10.7678 0
      vertex -6.75261 11.9635 0
      vertex -6.68865 12.0717 0
    endloop
  endfacet
  facet normal 0 0 -1
    outer loop
      vertex -6.93717 -11.4974 0
      vertex -4.76777 -10.7678 0
      vertex -6.90211 -11.618 0
    endloop
  endfacet
  facet normal 0 0 -1
    outer loop
      vertex -4.76777 10.7678 0
      vertex -6.80965 11.8516 0
      vertex -6.75261 11.9635 0
    endloop
  endfacet
  facet normal 0 0 -1
    outer loop
      vertex -6.96457 -11.3748 0
      vertex -4.76777 -10.7678 0
      vertex -6.93717 -11.4974 0
    endloop
  endfacet
  facet normal 0 0 -1
    outer loop
      vertex -4.76777 10.7678 0
      vertex -6.85955 11.7362 0
      vertex -6.80965 11.8516 0
    endloop
  endfacet
  facet normal 0 0 -1
    outer loop
      vertex -6.98423 -11.2507 0
      vertex -4.76777 -10.7678 0
      vertex -6.96457 -11.3748 0
    endloop
  endfacet
  facet normal 0 0 -1
    outer loop
      vertex -4.76777 10.7678 0
      vertex -6.90211 11.618 0
      vertex -6.85955 11.7362 0
    endloop
  endfacet
  facet normal 0 0 -1
    outer loop
      vertex -6.99605 -11.1256 0
      vertex -4.76777 -10.7678 0
      vertex -6.98423 -11.2507 0
    endloop
  endfacet
  facet normal 0 0 -1
    outer loop
      vertex -4.76777 10.7678 0
      vertex -6.93717 11.4974 0
      vertex -6.90211 11.618 0
    endloop
  endfacet
  facet normal 0 0 -1
    outer loop
      vertex -4.76777 -10.7678 0
      vertex -6.99605 -11.1256 0
      vertex -7 -11 0
    endloop
  endfacet
  facet normal 0 0 -1
    outer loop
      vertex -4.76777 10.7678 0
      vertex -6.96457 11.3748 0
      vertex -6.93717 11.4974 0
    endloop
  endfacet
  facet normal 0 0 -1
    outer loop
      vertex -4.76777 10.7678 0
      vertex -6.98423 11.2507 0
      vertex -6.96457 11.3748 0
    endloop
  endfacet
  facet normal 0 0 -1
    outer loop
      vertex -4.76777 10.7678 0
      vertex -6.99605 11.1256 0
      vertex -6.98423 11.2507 0
    endloop
  endfacet
  facet normal -0.92388 0.382683 0
    outer loop
      vertex -1.23223 -10.7678 0
      vertex -0.5 -9 3
      vertex -0.5 -9 0
    endloop
  endfacet
  facet normal -0.92388 0.382683 0
    outer loop
      vertex -0.5 -9 3
      vertex -1.23223 -10.7678 0
      vertex -1.23223 -10.7678 3
    endloop
  endfacet
  facet normal 0.382683 0.92388 -0
    outer loop
      vertex -3 -11.5 0
      vertex -4.76777 -10.7678 3
      vertex -3 -11.5 3
    endloop
  endfacet
  facet normal 0.382683 0.92388 0
    outer loop
      vertex -4.76777 -10.7678 3
      vertex -3 -11.5 0
      vertex -4.76777 -10.7678 0
    endloop
  endfacet
  facet normal -0.92388 -0.382683 0
    outer loop
      vertex 5.5 -9 0
      vertex 4.76777 -7.23223 3
      vertex 4.76777 -7.23223 0
    endloop
  endfacet
  facet normal -0.92388 -0.382683 0
    outer loop
      vertex 4.76777 -7.23223 3
      vertex 5.5 -9 0
      vertex 5.5 -9 3
    endloop
  endfacet
  facet normal 0.382683 -0.92388 0
    outer loop
      vertex 1.23223 -7.23223 0
      vertex 3 -6.5 3
      vertex 1.23223 -7.23223 3
    endloop
  endfacet
  facet normal 0.382683 -0.92388 0
    outer loop
      vertex 3 -6.5 3
      vertex 1.23223 -7.23223 0
      vertex 3 -6.5 0
    endloop
  endfacet
  facet normal -0.382683 -0.92388 0
    outer loop
      vertex 3 -6.5 0
      vertex 4.76777 -7.23223 3
      vertex 3 -6.5 3
    endloop
  endfacet
  facet normal -0.382683 -0.92388 -0
    outer loop
      vertex 4.76777 -7.23223 3
      vertex 3 -6.5 0
      vertex 4.76777 -7.23223 0
    endloop
  endfacet
  facet normal 0.92388 -0.382683 0
    outer loop
      vertex 0.5 -9 3
      vertex 1.23223 -7.23223 0
      vertex 1.23223 -7.23223 3
    endloop
  endfacet
  facet normal 0.92388 -0.382683 0
    outer loop
      vertex 1.23223 -7.23223 0
      vertex 0.5 -9 3
      vertex 0.5 -9 0
    endloop
  endfacet
  facet normal -0.92388 0.382683 0
    outer loop
      vertex 4.76777 -10.7678 0
      vertex 5.5 -9 3
      vertex 5.5 -9 0
    endloop
  endfacet
  facet normal -0.92388 0.382683 0
    outer loop
      vertex 5.5 -9 3
      vertex 4.76777 -10.7678 0
      vertex 4.76777 -10.7678 3
    endloop
  endfacet
  facet normal 0.382683 0.92388 -0
    outer loop
      vertex 3 -11.5 0
      vertex 1.23223 -10.7678 3
      vertex 3 -11.5 3
    endloop
  endfacet
  facet normal 0.382683 0.92388 0
    outer loop
      vertex 1.23223 -10.7678 3
      vertex 3 -11.5 0
      vertex 1.23223 -10.7678 0
    endloop
  endfacet
  facet normal 0.92388 0.382683 0
    outer loop
      vertex 1.23223 -10.7678 3
      vertex 0.5 -9 0
      vertex 0.5 -9 3
    endloop
  endfacet
  facet normal 0.92388 0.382683 0
    outer loop
      vertex 0.5 -9 0
      vertex 1.23223 -10.7678 3
      vertex 1.23223 -10.7678 0
    endloop
  endfacet
  facet normal -0.382683 0.92388 0
    outer loop
      vertex 4.76777 -10.7678 0
      vertex 3 -11.5 3
      vertex 4.76777 -10.7678 3
    endloop
  endfacet
  facet normal -0.382683 0.92388 0
    outer loop
      vertex 3 -11.5 3
      vertex 4.76777 -10.7678 0
      vertex 3 -11.5 0
    endloop
  endfacet
  facet normal -0.92388 -0.382683 0
    outer loop
      vertex -0.5 9 0
      vertex -1.23223 10.7678 3
      vertex -1.23223 10.7678 0
    endloop
  endfacet
  facet normal -0.92388 -0.382683 0
    outer loop
      vertex -1.23223 10.7678 3
      vertex -0.5 9 0
      vertex -0.5 9 3
    endloop
  endfacet
  facet normal 0.92388 -0.382683 0
    outer loop
      vertex -5.5 9 3
      vertex -4.76777 10.7678 0
      vertex -4.76777 10.7678 3
    endloop
  endfacet
  facet normal 0.92388 -0.382683 0
    outer loop
      vertex -4.76777 10.7678 0
      vertex -5.5 9 3
      vertex -5.5 9 0
    endloop
  endfacet
  facet normal -0.382683 -0.92388 0
    outer loop
      vertex -3 11.5 0
      vertex -1.23223 10.7678 3
      vertex -3 11.5 3
    endloop
  endfacet
  facet normal -0.382683 -0.92388 -0
    outer loop
      vertex -1.23223 10.7678 3
      vertex -3 11.5 0
      vertex -1.23223 10.7678 0
    endloop
  endfacet
  facet normal 0.382683 -0.92388 0
    outer loop
      vertex -4.76777 10.7678 0
      vertex -3 11.5 3
      vertex -4.76777 10.7678 3
    endloop
  endfacet
  facet normal 0.382683 -0.92388 0
    outer loop
      vertex -3 11.5 3
      vertex -4.76777 10.7678 0
      vertex -3 11.5 0
    endloop
  endfacet
  facet normal 0.92388 0.382683 0
    outer loop
      vertex -4.76777 7.23223 3
      vertex -5.5 9 0
      vertex -5.5 9 3
    endloop
  endfacet
  facet normal 0.92388 0.382683 0
    outer loop
      vertex -5.5 9 0
      vertex -4.76777 7.23223 3
      vertex -4.76777 7.23223 0
    endloop
  endfacet
  facet normal -0.92388 0.382683 0
    outer loop
      vertex -1.23223 7.23223 0
      vertex -0.5 9 3
      vertex -0.5 9 0
    endloop
  endfacet
  facet normal -0.92388 0.382683 0
    outer loop
      vertex -0.5 9 3
      vertex -1.23223 7.23223 0
      vertex -1.23223 7.23223 3
    endloop
  endfacet
  facet normal 0.382683 0.92388 -0
    outer loop
      vertex -3 6.5 0
      vertex -4.76777 7.23223 3
      vertex -3 6.5 3
    endloop
  endfacet
  facet normal 0.382683 0.92388 0
    outer loop
      vertex -4.76777 7.23223 3
      vertex -3 6.5 0
      vertex -4.76777 7.23223 0
    endloop
  endfacet
  facet normal -0.382683 0.92388 0
    outer loop
      vertex -1.23223 7.23223 0
      vertex -3 6.5 3
      vertex -1.23223 7.23223 3
    endloop
  endfacet
  facet normal -0.382683 0.92388 0
    outer loop
      vertex -3 6.5 3
      vertex -1.23223 7.23223 0
      vertex -3 6.5 0
    endloop
  endfacet
  facet normal -0.92388 -0.382683 0
    outer loop
      vertex 5.5 9 0
      vertex 4.76777 10.7678 3
      vertex 4.76777 10.7678 0
    endloop
  endfacet
  facet normal -0.92388 -0.382683 0
    outer loop
      vertex 4.76777 10.7678 3
      vertex 5.5 9 0
      vertex 5.5 9 3
    endloop
  endfacet
  facet normal 0.382683 -0.92388 0
    outer loop
      vertex 1.23223 10.7678 0
      vertex 3 11.5 3
      vertex 1.23223 10.7678 3
    endloop
  endfacet
  facet normal 0.382683 -0.92388 0
    outer loop
      vertex 3 11.5 3
      vertex 1.23223 10.7678 0
      vertex 3 11.5 0
    endloop
  endfacet
  facet normal -0.382683 -0.92388 0
    outer loop
      vertex 3 11.5 0
      vertex 4.76777 10.7678 3
      vertex 3 11.5 3
    endloop
  endfacet
  facet normal -0.382683 -0.92388 -0
    outer loop
      vertex 4.76777 10.7678 3
      vertex 3 11.5 0
      vertex 4.76777 10.7678 0
    endloop
  endfacet
  facet normal 0.92388 -0.382683 0
    outer loop
      vertex 0.5 9 3
      vertex 1.23223 10.7678 0
      vertex 1.23223 10.7678 3
    endloop
  endfacet
  facet normal 0.92388 -0.382683 0
    outer loop
      vertex 1.23223 10.7678 0
      vertex 0.5 9 3
      vertex 0.5 9 0
    endloop
  endfacet
  facet normal -0.92388 0.382683 0
    outer loop
      vertex 4.76777 7.23223 0
      vertex 5.5 9 3
      vertex 5.5 9 0
    endloop
  endfacet
  facet normal -0.92388 0.382683 0
    outer loop
      vertex 5.5 9 3
      vertex 4.76777 7.23223 0
      vertex 4.76777 7.23223 3
    endloop
  endfacet
  facet normal 0.382683 0.92388 -0
    outer loop
      vertex 3 6.5 0
      vertex 1.23223 7.23223 3
      vertex 3 6.5 3
    endloop
  endfacet
  facet normal 0.382683 0.92388 0
    outer loop
      vertex 1.23223 7.23223 3
      vertex 3 6.5 0
      vertex 1.23223 7.23223 0
    endloop
  endfacet
  facet normal 0.92388 0.382683 0
    outer loop
      vertex 1.23223 7.23223 3
      vertex 0.5 9 0
      vertex 0.5 9 3
    endloop
  endfacet
  facet normal 0.92388 0.382683 0
    outer loop
      vertex 0.5 9 0
      vertex 1.23223 7.23223 3
      vertex 1.23223 7.23223 0
    endloop
  endfacet
  facet normal -0.382683 0.92388 0
    outer loop
      vertex 4.76777 7.23223 0
      vertex 3 6.5 3
      vertex 4.76777 7.23223 3
    endloop
  endfacet
  facet normal -0.382683 0.92388 0
    outer loop
      vertex 3 6.5 3
      vertex 4.76777 7.23223 0
      vertex 3 6.5 0
    endloop
  endfacet
  facet normal -0.995562 -0.0941056 0
    outer loop
      vertex -6.98423 -11.2507 0
      vertex -6.99605 -11.1256 3
      vertex -6.99605 -11.1256 0
    endloop
  endfacet
  facet normal -0.995562 -0.0941056 0
    outer loop
      vertex -6.99605 -11.1256 3
      vertex -6.98423 -11.2507 0
      vertex -6.98423 -11.2507 3
    endloop
  endfacet
  facet normal -1 0 0
    outer loop
      vertex -7 -11 0
      vertex -7 11 3
      vertex -7 11 0
    endloop
  endfacet
  facet normal -1 -0 0
    outer loop
      vertex -7 11 3
      vertex -7 -11 0
      vertex -7 -11 3
    endloop
  endfacet
  facet normal 0.999506 0.0314165 0
    outer loop
      vertex 7 11 3
      vertex 6.99605 11.1256 0
      vertex 6.99605 11.1256 3
    endloop
  endfacet
  facet normal 0.999506 0.0314165 0
    outer loop
      vertex 6.99605 11.1256 0
      vertex 7 11 3
      vertex 7 11 0
    endloop
  endfacet
  facet normal -0.999506 -0.0314165 0
    outer loop
      vertex -6.99605 -11.1256 0
      vertex -7 -11 3
      vertex -7 -11 0
    endloop
  endfacet
  facet normal -0.999506 -0.0314165 0
    outer loop
      vertex -7 -11 3
      vertex -6.99605 -11.1256 0
      vertex -6.99605 -11.1256 3
    endloop
  endfacet
  facet normal 0.827082 -0.562081 0
    outer loop
      vertex 6.61803 -12.1756 3
      vertex 6.68865 -12.0717 0
      vertex 6.68865 -12.0717 3
    endloop
  endfacet
  facet normal 0.827082 -0.562081 0
    outer loop
      vertex 6.68865 -12.0717 0
      vertex 6.61803 -12.1756 3
      vertex 6.61803 -12.1756 0
    endloop
  endfacet
  facet normal -0.827082 0.562081 0
    outer loop
      vertex -6.68865 12.0717 0
      vertex -6.61803 12.1756 3
      vertex -6.61803 12.1756 0
    endloop
  endfacet
  facet normal -0.827082 0.562081 0
    outer loop
      vertex -6.61803 12.1756 3
      vertex -6.68865 12.0717 0
      vertex -6.68865 12.0717 3
    endloop
  endfacet
  facet normal 0 0 1
    outer loop
      vertex -3 -6.5 3
      vertex 3 -6.5 3
      vertex -3 6.5 3
    endloop
  endfacet
  facet normal 0 0 1
    outer loop
      vertex 1.23223 -7.23223 3
      vertex -1.23223 -7.23223 3
      vertex -0.5 -9 3
    endloop
  endfacet
  facet normal 0 0 1
    outer loop
      vertex 3 -6.5 3
      vertex -3 -6.5 3
      vertex 1.23223 -7.23223 3
    endloop
  endfacet
  facet normal 0 0 1
    outer loop
      vertex 1.23223 -7.23223 3
      vertex -3 -6.5 3
      vertex -1.23223 -7.23223 3
    endloop
  endfacet
  facet normal 0 0 1
    outer loop
      vertex -4.76777 7.23223 3
      vertex -3 -6.5 3
      vertex -3 6.5 3
    endloop
  endfacet
  facet normal 0 0 1
    outer loop
      vertex -4.76777 7.23223 3
      vertex -4.76777 -7.23223 3
      vertex -3 -6.5 3
    endloop
  endfacet
  facet normal 0 0 1
    outer loop
      vertex -7 11 3
      vertex -4.76777 7.23223 3
      vertex -5.5 9 3
    endloop
  endfacet
  facet normal 0 0 1
    outer loop
      vertex -4.76777 7.23223 3
      vertex -7 11 3
      vertex -4.76777 -7.23223 3
    endloop
  endfacet
  facet normal -0 0 1
    outer loop
      vertex 4.76777 -7.23223 3
      vertex 7 -11 3
      vertex 4.76777 7.23223 3
    endloop
  endfacet
  facet normal 0 0 1
    outer loop
      vertex 7 -11 3
      vertex 4.76777 -7.23223 3
      vertex 5.5 -9 3
    endloop
  endfacet
  facet normal 0 0 1
    outer loop
      vertex 4.76777 7.23223 3
      vertex 3 -6.5 3
      vertex 4.76777 -7.23223 3
    endloop
  endfacet
  facet normal -0 0 1
    outer loop
      vertex 3 6.5 3
      vertex 3 -6.5 3
      vertex 4.76777 7.23223 3
    endloop
  endfacet
  facet normal -0 0 1
    outer loop
      vertex -1.23223 7.23223 3
      vertex 3 6.5 3
      vertex 1.23223 7.23223 3
    endloop
  endfacet
  facet normal 0 0 1
    outer loop
      vertex -3 6.5 3
      vertex 3 6.5 3
      vertex -1.23223 7.23223 3
    endloop
  endfacet
  facet normal -0 0 1
    outer loop
      vertex -0.5 9 3
      vertex 1.23223 7.23223 3
      vertex 0.5 9 3
    endloop
  endfacet
  facet normal 0 0 1
    outer loop
      vertex -1.23223 7.23223 3
      vertex 1.23223 7.23223 3
      vertex -0.5 9 3
    endloop
  endfacet
  facet normal 0 0 1
    outer loop
      vertex 4.76777 10.7678 3
      vertex 7 11 3
      vertex 6.99605 11.1256 3
    endloop
  endfacet
  facet normal 0 0 1
    outer loop
      vertex 4.76777 7.23223 3
      vertex 7 11 3
      vertex 5.5 9 3
    endloop
  endfacet
  facet normal 0 0 1
    outer loop
      vertex 4.76777 10.7678 3
      vertex 6.99605 11.1256 3
      vertex 6.98423 11.2507 3
    endloop
  endfacet
  facet normal 0 0 1
    outer loop
      vertex 7 11 3
      vertex 4.76777 7.23223 3
      vertex 7 -11 3
    endloop
  endfacet
  facet normal 0 0 1
    outer loop
      vertex 4.76777 10.7678 3
      vertex 6.98423 11.2507 3
      vertex 6.96457 11.3748 3
    endloop
  endfacet
  facet normal -0 0 1
    outer loop
      vertex 4.76777 -10.7678 3
      vertex 7 -11 3
      vertex 5.5 -9 3
    endloop
  endfacet
  facet normal 0 0 1
    outer loop
      vertex 4.76777 10.7678 3
      vertex 6.96457 11.3748 3
      vertex 6.93717 11.4974 3
    endloop
  endfacet
  facet normal 0 0 1
    outer loop
      vertex 7 -11 3
      vertex 4.76777 -10.7678 3
      vertex 6.99605 -11.1256 3
    endloop
  endfacet
  facet normal 0 0 1
    outer loop
      vertex 4.76777 10.7678 3
      vertex 6.93717 11.4974 3
      vertex 6.90211 11.618 3
    endloop
  endfacet
  facet normal 0 0 1
    outer loop
      vertex 6.99605 -11.1256 3
      vertex 4.76777 -10.7678 3
      vertex 6.98423 -11.2507 3
    endloop
  endfacet
  facet normal 0 0 1
    outer loop
      vertex 4.76777 10.7678 3
      vertex 6.90211 11.618 3
      vertex 6.85955 11.7362 3
    endloop
  endfacet
  facet normal 0 0 1
    outer loop
      vertex 6.98423 -11.2507 3
      vertex 4.76777 -10.7678 3
      vertex 6.96457 -11.3748 3
    endloop
  endfacet
  facet normal 0 0 1
    outer loop
      vertex 4.76777 10.7678 3
      vertex 6.85955 11.7362 3
      vertex 6.80965 11.8516 3
    endloop
  endfacet
  facet normal 0 0 1
    outer loop
      vertex 6.96457 -11.3748 3
      vertex 4.76777 -10.7678 3
      vertex 6.93717 -11.4974 3
    endloop
  endfacet
  facet normal 0 0 1
    outer loop
      vertex 4.76777 10.7678 3
      vertex 6.80965 11.8516 3
      vertex 6.75261 11.9635 3
    endloop
  endfacet
  facet normal 0 0 1
    outer loop
      vertex 6.93717 -11.4974 3
      vertex 4.76777 -10.7678 3
      vertex 6.90211 -11.618 3
    endloop
  endfacet
  facet normal 0 0 1
    outer loop
      vertex 4.76777 10.7678 3
      vertex 6.75261 11.9635 3
      vertex 6.68865 12.0717 3
    endloop
  endfacet
  facet normal 0 0 1
    outer loop
      vertex 6.90211 -11.618 3
      vertex 4.76777 -10.7678 3
      vertex 6.85955 -11.7362 3
    endloop
  endfacet
  facet normal 0 0 1
    outer loop
      vertex 4.76777 10.7678 3
      vertex 6.68865 12.0717 3
      vertex 6.61803 12.1756 3
    endloop
  endfacet
  facet normal 0 0 1
    outer loop
      vertex 6.85955 -11.7362 3
      vertex 4.76777 -10.7678 3
      vertex 6.80965 -11.8516 3
    endloop
  endfacet
  facet normal 0 0 1
    outer loop
      vertex 4.76777 10.7678 3
      vertex 6.61803 12.1756 3
      vertex 6.54103 12.2748 3
    endloop
  endfacet
  facet normal 0 0 1
    outer loop
      vertex 6.80965 -11.8516 3
      vertex 4.76777 -10.7678 3
      vertex 6.75261 -11.9635 3
    endloop
  endfacet
  facet normal 0 0 1
    outer loop
      vertex 4.76777 10.7678 3
      vertex 6.54103 12.2748 3
      vertex 6.45794 12.3691 3
    endloop
  endfacet
  facet normal 0 0 1
    outer loop
      vertex 6.75261 -11.9635 3
      vertex 4.76777 -10.7678 3
      vertex 6.68865 -12.0717 3
    endloop
  endfacet
  facet normal 0 0 1
    outer loop
      vertex 4.76777 10.7678 3
      vertex 6.45794 12.3691 3
      vertex 6.36909 12.4579 3
    endloop
  endfacet
  facet normal 0 0 1
    outer loop
      vertex 6.68865 -12.0717 3
      vertex 4.76777 -10.7678 3
      vertex 6.61803 -12.1756 3
    endloop
  endfacet
  facet normal 0 0 1
    outer loop
      vertex 4.76777 10.7678 3
      vertex 6.36909 12.4579 3
      vertex 6.27485 12.541 3
    endloop
  endfacet
  facet normal 0 0 1
    outer loop
      vertex 6.61803 -12.1756 3
      vertex 4.76777 -10.7678 3
      vertex 6.54103 -12.2748 3
    endloop
  endfacet
  facet normal 0 0 1
    outer loop
      vertex 4.76777 10.7678 3
      vertex 6.27485 12.541 3
      vertex 6.17557 12.618 3
    endloop
  endfacet
  facet normal 0 0 1
    outer loop
      vertex 6.54103 -12.2748 3
      vertex 4.76777 -10.7678 3
      vertex 6.45794 -12.3691 3
    endloop
  endfacet
  facet normal 0 0 1
    outer loop
      vertex 4.76777 10.7678 3
      vertex 6.17557 12.618 3
      vertex 6.07165 12.6887 3
    endloop
  endfacet
  facet normal 0 0 1
    outer loop
      vertex 6.45794 -12.3691 3
      vertex 4.76777 -10.7678 3
      vertex 6.36909 -12.4579 3
    endloop
  endfacet
  facet normal 0 0 1
    outer loop
      vertex 4.76777 10.7678 3
      vertex 6.07165 12.6887 3
      vertex 5.96351 12.7526 3
    endloop
  endfacet
  facet normal 0 0 1
    outer loop
      vertex 6.36909 -12.4579 3
      vertex 4.76777 -10.7678 3
      vertex 6.27485 -12.541 3
    endloop
  endfacet
  facet normal 0 0 1
    outer loop
      vertex 4.76777 10.7678 3
      vertex 5.96351 12.7526 3
      vertex 5.85156 12.8097 3
    endloop
  endfacet
  facet normal 0 0 1
    outer loop
      vertex 6.27485 -12.541 3
      vertex 4.76777 -10.7678 3
      vertex 6.17557 -12.618 3
    endloop
  endfacet
  facet normal 0 0 1
    outer loop
      vertex 4.76777 10.7678 3
      vertex 5.85156 12.8097 3
      vertex 5.73625 12.8596 3
    endloop
  endfacet
  facet normal 0 0 1
    outer loop
      vertex 6.17557 -12.618 3
      vertex 4.76777 -10.7678 3
      vertex 6.07165 -12.6887 3
    endloop
  endfacet
  facet normal 0 0 1
    outer loop
      vertex 4.76777 10.7678 3
      vertex 5.73625 12.8596 3
      vertex 5.61803 12.9021 3
    endloop
  endfacet
  facet normal 0 0 1
    outer loop
      vertex 6.07165 -12.6887 3
      vertex 4.76777 -10.7678 3
      vertex 5.96351 -12.7526 3
    endloop
  endfacet
  facet normal 0 0 1
    outer loop
      vertex 5.96351 -12.7526 3
      vertex 4.76777 -10.7678 3
      vertex 5.85156 -12.8097 3
    endloop
  endfacet
  facet normal 0 0 1
    outer loop
      vertex 4.76777 10.7678 3
      vertex 5.61803 12.9021 3
      vertex 5.49738 12.9372 3
    endloop
  endfacet
  facet normal 0 0 1
    outer loop
      vertex 4.76777 10.7678 3
      vertex 5.49738 12.9372 3
      vertex 5.37476 12.9646 3
    endloop
  endfacet
  facet normal 0 0 1
    outer loop
      vertex 4.76777 10.7678 3
      vertex 5.37476 12.9646 3
      vertex 5.25067 12.9842 3
    endloop
  endfacet
  facet normal 0 0 1
    outer loop
      vertex 4.76777 10.7678 3
      vertex 5.25067 12.9842 3
      vertex 5.12558 12.9961 3
    endloop
  endfacet
  facet normal 0 0 1
    outer loop
      vertex 4.76777 10.7678 3
      vertex 5.12558 12.9961 3
      vertex 5 13 3
    endloop
  endfacet
  facet normal 0 0 1
    outer loop
      vertex 7 11 3
      vertex 4.76777 10.7678 3
      vertex 5.5 9 3
    endloop
  endfacet
  facet normal 0 0 1
    outer loop
      vertex 5 13 3
      vertex 3 11.5 3
      vertex 4.76777 10.7678 3
    endloop
  endfacet
  facet normal 0 0 1
    outer loop
      vertex -3 11.5 3
      vertex 3 11.5 3
      vertex 5 13 3
    endloop
  endfacet
  facet normal 0 0 1
    outer loop
      vertex 3 6.5 3
      vertex -3 6.5 3
      vertex 3 -6.5 3
    endloop
  endfacet
  facet normal 0 0 1
    outer loop
      vertex 1.23223 10.7678 3
      vertex -0.5 9 3
      vertex 0.5 9 3
    endloop
  endfacet
  facet normal 0 0 1
    outer loop
      vertex 1.23223 10.7678 3
      vertex -1.23223 10.7678 3
      vertex -0.5 9 3
    endloop
  endfacet
  facet normal 0 0 1
    outer loop
      vertex 3 11.5 3
      vertex -3 11.5 3
      vertex 1.23223 10.7678 3
    endloop
  endfacet
  facet normal 0 0 1
    outer loop
      vertex 1.23223 10.7678 3
      vertex -3 11.5 3
      vertex -1.23223 10.7678 3
    endloop
  endfacet
  facet normal -0 0 1
    outer loop
      vertex -5 13 3
      vertex -3 11.5 3
      vertex 5 13 3
    endloop
  endfacet
  facet normal 0 0 1
    outer loop
      vertex -5 13 3
      vertex -4.76777 10.7678 3
      vertex -3 11.5 3
    endloop
  endfacet
  facet normal -0 0 1
    outer loop
      vertex -5.12558 12.9961 3
      vertex -4.76777 10.7678 3
      vertex -5 13 3
    endloop
  endfacet
  facet normal -0 0 1
    outer loop
      vertex -5.25067 12.9842 3
      vertex -4.76777 10.7678 3
      vertex -5.12558 12.9961 3
    endloop
  endfacet
  facet normal -0 0 1
    outer loop
      vertex -5.37476 12.9646 3
      vertex -4.76777 10.7678 3
      vertex -5.25067 12.9842 3
    endloop
  endfacet
  facet normal -0 0 1
    outer loop
      vertex -5.49738 12.9372 3
      vertex -4.76777 10.7678 3
      vertex -5.37476 12.9646 3
    endloop
  endfacet
  facet normal -0 0 1
    outer loop
      vertex -5.61803 12.9021 3
      vertex -4.76777 10.7678 3
      vertex -5.49738 12.9372 3
    endloop
  endfacet
  facet normal 0 0 1
    outer loop
      vertex -4.76777 10.7678 3
      vertex -7 11 3
      vertex -5.5 9 3
    endloop
  endfacet
  facet normal -0 0 1
    outer loop
      vertex -5.73625 12.8596 3
      vertex -4.76777 10.7678 3
      vertex -5.61803 12.9021 3
    endloop
  endfacet
  facet normal 0 0 1
    outer loop
      vertex 5.85156 -12.8097 3
      vertex 4.76777 -10.7678 3
      vertex 5.73625 -12.8596 3
    endloop
  endfacet
  facet normal 0 0 1
    outer loop
      vertex 5.73625 -12.8596 3
      vertex 4.76777 -10.7678 3
      vertex 5.61803 -12.9021 3
    endloop
  endfacet
  facet normal 0 0 1
    outer loop
      vertex 5.61803 -12.9021 3
      vertex 4.76777 -10.7678 3
      vertex 5.49738 -12.9372 3
    endloop
  endfacet
  facet normal 0 0 1
    outer loop
      vertex 5.49738 -12.9372 3
      vertex 4.76777 -10.7678 3
      vertex 5.37476 -12.9646 3
    endloop
  endfacet
  facet normal 0 0 1
    outer loop
      vertex 5.37476 -12.9646 3
      vertex 4.76777 -10.7678 3
      vertex 5.25067 -12.9842 3
    endloop
  endfacet
  facet normal 0 0 1
    outer loop
      vertex 5.25067 -12.9842 3
      vertex 4.76777 -10.7678 3
      vertex 5.12558 -12.9961 3
    endloop
  endfacet
  facet normal 0 0 1
    outer loop
      vertex 5.12558 -12.9961 3
      vertex 4.76777 -10.7678 3
      vertex 5 -13 3
    endloop
  endfacet
  facet normal -0 0 1
    outer loop
      vertex 3 -11.5 3
      vertex 5 -13 3
      vertex 4.76777 -10.7678 3
    endloop
  endfacet
  facet normal 0 0 1
    outer loop
      vertex -3 -11.5 3
      vertex 3 -11.5 3
      vertex 1.23223 -10.7678 3
    endloop
  endfacet
  facet normal 0 0 1
    outer loop
      vertex 1.23223 -7.23223 3
      vertex -0.5 -9 3
      vertex 0.5 -9 3
    endloop
  endfacet
  facet normal -0 0 1
    outer loop
      vertex -0.5 -9 3
      vertex 1.23223 -10.7678 3
      vertex 0.5 -9 3
    endloop
  endfacet
  facet normal 0 0 1
    outer loop
      vertex -1.23223 -10.7678 3
      vertex 1.23223 -10.7678 3
      vertex -0.5 -9 3
    endloop
  endfacet
  facet normal 0 0 1
    outer loop
      vertex -3 -11.5 3
      vertex 1.23223 -10.7678 3
      vertex -1.23223 -10.7678 3
    endloop
  endfacet
  facet normal 0 0 1
    outer loop
      vertex 3 -11.5 3
      vertex -3 -11.5 3
      vertex 5 -13 3
    endloop
  endfacet
  facet normal 0 0 1
    outer loop
      vertex -3 -11.5 3
      vertex -5 -13 3
      vertex 5 -13 3
    endloop
  endfacet
  facet normal 0 0 1
    outer loop
      vertex -4.76777 -10.7678 3
      vertex -5 -13 3
      vertex -3 -11.5 3
    endloop
  endfacet
  facet normal 0 0 1
    outer loop
      vertex -4.76777 -10.7678 3
      vertex -5.12558 -12.9961 3
      vertex -5 -13 3
    endloop
  endfacet
  facet normal 0 0 1
    outer loop
      vertex -4.76777 -10.7678 3
      vertex -5.25067 -12.9842 3
      vertex -5.12558 -12.9961 3
    endloop
  endfacet
  facet normal 0 0 1
    outer loop
      vertex -4.76777 -10.7678 3
      vertex -5.37476 -12.9646 3
      vertex -5.25067 -12.9842 3
    endloop
  endfacet
  facet normal 0 0 1
    outer loop
      vertex -4.76777 -10.7678 3
      vertex -5.49738 -12.9372 3
      vertex -5.37476 -12.9646 3
    endloop
  endfacet
  facet normal 0 0 1
    outer loop
      vertex -7 -11 3
      vertex -4.76777 -10.7678 3
      vertex -5.5 -9 3
    endloop
  endfacet
  facet normal 0 0 1
    outer loop
      vertex -7 -11 3
      vertex -4.76777 -7.23223 3
      vertex -7 11 3
    endloop
  endfacet
  facet normal 0 0 1
    outer loop
      vertex -4.76777 -7.23223 3
      vertex -7 -11 3
      vertex -5.5 -9 3
    endloop
  endfacet
  facet normal -0 0 1
    outer loop
      vertex -5.85156 12.8097 3
      vertex -4.76777 10.7678 3
      vertex -5.73625 12.8596 3
    endloop
  endfacet
  facet normal 0 -0 1
    outer loop
      vertex -6.99605 -11.1256 3
      vertex -4.76777 -10.7678 3
      vertex -7 -11 3
    endloop
  endfacet
  facet normal -0 0 1
    outer loop
      vertex -5.96351 12.7526 3
      vertex -4.76777 10.7678 3
      vertex -5.85156 12.8097 3
    endloop
  endfacet
  facet normal 0 0 1
    outer loop
      vertex -4.76777 -10.7678 3
      vertex -5.61803 -12.9021 3
      vertex -5.49738 -12.9372 3
    endloop
  endfacet
  facet normal -0 0 1
    outer loop
      vertex -6.07165 12.6887 3
      vertex -4.76777 10.7678 3
      vertex -5.96351 12.7526 3
    endloop
  endfacet
  facet normal 0 0 1
    outer loop
      vertex -4.76777 -10.7678 3
      vertex -5.73625 -12.8596 3
      vertex -5.61803 -12.9021 3
    endloop
  endfacet
  facet normal -0 0 1
    outer loop
      vertex -6.17557 12.618 3
      vertex -4.76777 10.7678 3
      vertex -6.07165 12.6887 3
    endloop
  endfacet
  facet normal 0 0 1
    outer loop
      vertex -4.76777 -10.7678 3
      vertex -5.85156 -12.8097 3
      vertex -5.73625 -12.8596 3
    endloop
  endfacet
  facet normal -0 0 1
    outer loop
      vertex -6.27485 12.541 3
      vertex -4.76777 10.7678 3
      vertex -6.17557 12.618 3
    endloop
  endfacet
  facet normal 0 0 1
    outer loop
      vertex -4.76777 -10.7678 3
      vertex -5.96351 -12.7526 3
      vertex -5.85156 -12.8097 3
    endloop
  endfacet
  facet normal -0 0 1
    outer loop
      vertex -6.36909 12.4579 3
      vertex -4.76777 10.7678 3
      vertex -6.27485 12.541 3
    endloop
  endfacet
  facet normal 0 0 1
    outer loop
      vertex -4.76777 -10.7678 3
      vertex -6.07165 -12.6887 3
      vertex -5.96351 -12.7526 3
    endloop
  endfacet
  facet normal -0 0 1
    outer loop
      vertex -6.45794 12.3691 3
      vertex -4.76777 10.7678 3
      vertex -6.36909 12.4579 3
    endloop
  endfacet
  facet normal 0 0 1
    outer loop
      vertex -4.76777 -10.7678 3
      vertex -6.17557 -12.618 3
      vertex -6.07165 -12.6887 3
    endloop
  endfacet
  facet normal -0 0 1
    outer loop
      vertex -6.54103 12.2748 3
      vertex -4.76777 10.7678 3
      vertex -6.45794 12.3691 3
    endloop
  endfacet
  facet normal 0 0 1
    outer loop
      vertex -4.76777 -10.7678 3
      vertex -6.27485 -12.541 3
      vertex -6.17557 -12.618 3
    endloop
  endfacet
  facet normal -0 0 1
    outer loop
      vertex -6.61803 12.1756 3
      vertex -4.76777 10.7678 3
      vertex -6.54103 12.2748 3
    endloop
  endfacet
  facet normal 0 0 1
    outer loop
      vertex -4.76777 -10.7678 3
      vertex -6.36909 -12.4579 3
      vertex -6.27485 -12.541 3
    endloop
  endfacet
  facet normal -0 0 1
    outer loop
      vertex -6.68865 12.0717 3
      vertex -4.76777 10.7678 3
      vertex -6.61803 12.1756 3
    endloop
  endfacet
  facet normal 0 0 1
    outer loop
      vertex -4.76777 -10.7678 3
      vertex -6.45794 -12.3691 3
      vertex -6.36909 -12.4579 3
    endloop
  endfacet
  facet normal -0 0 1
    outer loop
      vertex -6.75261 11.9635 3
      vertex -4.76777 10.7678 3
      vertex -6.68865 12.0717 3
    endloop
  endfacet
  facet normal 0 0 1
    outer loop
      vertex -4.76777 -10.7678 3
      vertex -6.54103 -12.2748 3
      vertex -6.45794 -12.3691 3
    endloop
  endfacet
  facet normal -0 0 1
    outer loop
      vertex -6.80965 11.8516 3
      vertex -4.76777 10.7678 3
      vertex -6.75261 11.9635 3
    endloop
  endfacet
  facet normal 0 0 1
    outer loop
      vertex -4.76777 -10.7678 3
      vertex -6.61803 -12.1756 3
      vertex -6.54103 -12.2748 3
    endloop
  endfacet
  facet normal -0 0 1
    outer loop
      vertex -6.85955 11.7362 3
      vertex -4.76777 10.7678 3
      vertex -6.80965 11.8516 3
    endloop
  endfacet
  facet normal 0 0 1
    outer loop
      vertex -4.76777 -10.7678 3
      vertex -6.68865 -12.0717 3
      vertex -6.61803 -12.1756 3
    endloop
  endfacet
  facet normal -0 0 1
    outer loop
      vertex -6.90211 11.618 3
      vertex -4.76777 10.7678 3
      vertex -6.85955 11.7362 3
    endloop
  endfacet
  facet normal 0 0 1
    outer loop
      vertex -4.76777 -10.7678 3
      vertex -6.75261 -11.9635 3
      vertex -6.68865 -12.0717 3
    endloop
  endfacet
  facet normal -0 0 1
    outer loop
      vertex -6.93717 11.4974 3
      vertex -4.76777 10.7678 3
      vertex -6.90211 11.618 3
    endloop
  endfacet
  facet normal 0 0 1
    outer loop
      vertex -4.76777 -10.7678 3
      vertex -6.80965 -11.8516 3
      vertex -6.75261 -11.9635 3
    endloop
  endfacet
  facet normal -0 0 1
    outer loop
      vertex -6.96457 11.3748 3
      vertex -4.76777 10.7678 3
      vertex -6.93717 11.4974 3
    endloop
  endfacet
  facet normal 0 0 1
    outer loop
      vertex -4.76777 -10.7678 3
      vertex -6.85955 -11.7362 3
      vertex -6.80965 -11.8516 3
    endloop
  endfacet
  facet normal -0 0 1
    outer loop
      vertex -6.98423 11.2507 3
      vertex -4.76777 10.7678 3
      vertex -6.96457 11.3748 3
    endloop
  endfacet
  facet normal 0 0 1
    outer loop
      vertex -4.76777 -10.7678 3
      vertex -6.90211 -11.618 3
      vertex -6.85955 -11.7362 3
    endloop
  endfacet
  facet normal -0 0 1
    outer loop
      vertex -6.99605 11.1256 3
      vertex -4.76777 10.7678 3
      vertex -6.98423 11.2507 3
    endloop
  endfacet
  facet normal 0 0 1
    outer loop
      vertex -4.76777 -10.7678 3
      vertex -6.93717 -11.4974 3
      vertex -6.90211 -11.618 3
    endloop
  endfacet
  facet normal 0 0 1
    outer loop
      vertex -4.76777 10.7678 3
      vertex -6.99605 11.1256 3
      vertex -7 11 3
    endloop
  endfacet
  facet normal 0 0 1
    outer loop
      vertex -4.76777 -10.7678 3
      vertex -6.96457 -11.3748 3
      vertex -6.93717 -11.4974 3
    endloop
  endfacet
  facet normal 0 0 1
    outer loop
      vertex -4.76777 -10.7678 3
      vertex -6.98423 -11.2507 3
      vertex -6.96457 -11.3748 3
    endloop
  endfacet
  facet normal 0 0 1
    outer loop
      vertex -4.76777 -10.7678 3
      vertex -6.99605 -11.1256 3
      vertex -6.98423 -11.2507 3
    endloop
  endfacet
  facet normal 0.0941056 0.995562 -0
    outer loop
      vertex 5.25067 12.9842 0
      vertex 5.12558 12.9961 3
      vertex 5.25067 12.9842 3
    endloop
  endfacet
  facet normal 0.0941056 0.995562 0
    outer loop
      vertex 5.12558 12.9961 3
      vertex 5.25067 12.9842 0
      vertex 5.12558 12.9961 0
    endloop
  endfacet
  facet normal -0.999506 0.0314165 0
    outer loop
      vertex -7 11 0
      vertex -6.99605 11.1256 3
      vertex -6.99605 11.1256 0
    endloop
  endfacet
  facet normal -0.999506 0.0314165 0
    outer loop
      vertex -6.99605 11.1256 3
      vertex -7 11 0
      vertex -7 11 3
    endloop
  endfacet
  facet normal 0.999506 -0.0314165 0
    outer loop
      vertex 6.99605 -11.1256 3
      vertex 7 -11 0
      vertex 7 -11 3
    endloop
  endfacet
  facet normal 0.999506 -0.0314165 0
    outer loop
      vertex 7 -11 0
      vertex 6.99605 -11.1256 3
      vertex 6.99605 -11.1256 0
    endloop
  endfacet
  facet normal 1 -0 0
    outer loop
      vertex 7 -11 3
      vertex 7 11 0
      vertex 7 11 3
    endloop
  endfacet
  facet normal 1 0 0
    outer loop
      vertex 7 11 0
      vertex 7 -11 3
      vertex 7 -11 0
    endloop
  endfacet
  facet normal 0.707107 0.707107 0
    outer loop
      vertex 6.45794 12.3691 3
      vertex 6.36909 12.4579 0
      vertex 6.36909 12.4579 3
    endloop
  endfacet
  facet normal 0.707107 0.707107 0
    outer loop
      vertex 6.36909 12.4579 0
      vertex 6.45794 12.3691 3
      vertex 6.45794 12.3691 0
    endloop
  endfacet
  facet normal -0.0314165 0.999506 0
    outer loop
      vertex -5 13 0
      vertex -5.12558 12.9961 3
      vertex -5 13 3
    endloop
  endfacet
  facet normal -0.0314165 0.999506 0
    outer loop
      vertex -5.12558 12.9961 3
      vertex -5 13 0
      vertex -5.12558 12.9961 0
    endloop
  endfacet
  facet normal 0.0314165 0.999506 -0
    outer loop
      vertex 5.12558 12.9961 0
      vertex 5 13 3
      vertex 5.12558 12.9961 3
    endloop
  endfacet
  facet normal 0.0314165 0.999506 0
    outer loop
      vertex 5 13 3
      vertex 5.12558 12.9961 0
      vertex 5 13 0
    endloop
  endfacet
  facet normal -0.94088 0.33874 0
    outer loop
      vertex -6.90211 11.618 0
      vertex -6.85955 11.7362 3
      vertex -6.85955 11.7362 0
    endloop
  endfacet
  facet normal -0.94088 0.33874 0
    outer loop
      vertex -6.85955 11.7362 3
      vertex -6.90211 11.618 0
      vertex -6.90211 11.618 3
    endloop
  endfacet
  facet normal -0.0314165 -0.999506 0
    outer loop
      vertex -5.12558 -12.9961 0
      vertex -5 -13 3
      vertex -5.12558 -12.9961 3
    endloop
  endfacet
  facet normal -0.0314165 -0.999506 -0
    outer loop
      vertex -5 -13 3
      vertex -5.12558 -12.9961 0
      vertex -5 -13 0
    endloop
  endfacet
  facet normal 0.397152 0.917753 -0
    outer loop
      vertex 5.85156 12.8097 0
      vertex 5.73625 12.8596 3
      vertex 5.85156 12.8097 3
    endloop
  endfacet
  facet normal 0.397152 0.917753 0
    outer loop
      vertex 5.73625 12.8596 3
      vertex 5.85156 12.8097 0
      vertex 5.73625 12.8596 0
    endloop
  endfacet
  facet normal -0.453986 0.891009 0
    outer loop
      vertex -5.85156 12.8097 0
      vertex -5.96351 12.7526 3
      vertex -5.85156 12.8097 3
    endloop
  endfacet
  facet normal -0.453986 0.891009 0
    outer loop
      vertex -5.96351 12.7526 3
      vertex -5.85156 12.8097 0
      vertex -5.96351 12.7526 0
    endloop
  endfacet
  facet normal 0 1 -0
    outer loop
      vertex 5 13 0
      vertex -5 13 3
      vertex 5 13 3
    endloop
  endfacet
  facet normal 0 1 0
    outer loop
      vertex -5 13 3
      vertex 5 13 0
      vertex -5 13 0
    endloop
  endfacet
  facet normal -0.891009 0.453986 0
    outer loop
      vertex -6.80965 11.8516 0
      vertex -6.75261 11.9635 3
      vertex -6.75261 11.9635 0
    endloop
  endfacet
  facet normal -0.891009 0.453986 0
    outer loop
      vertex -6.75261 11.9635 3
      vertex -6.80965 11.8516 0
      vertex -6.80965 11.8516 3
    endloop
  endfacet
  facet normal -0.860741 0.509044 0
    outer loop
      vertex -6.75261 11.9635 0
      vertex -6.68865 12.0717 3
      vertex -6.68865 12.0717 0
    endloop
  endfacet
  facet normal -0.860741 0.509044 0
    outer loop
      vertex -6.68865 12.0717 3
      vertex -6.75261 11.9635 0
      vertex -6.75261 11.9635 3
    endloop
  endfacet
  facet normal -0.917753 0.397152 0
    outer loop
      vertex -6.85955 11.7362 0
      vertex -6.80965 11.8516 3
      vertex -6.80965 11.8516 0
    endloop
  endfacet
  facet normal -0.917753 0.397152 0
    outer loop
      vertex -6.80965 11.8516 3
      vertex -6.85955 11.7362 0
      vertex -6.85955 11.7362 3
    endloop
  endfacet
  facet normal -0.987688 0.156436 0
    outer loop
      vertex -6.98423 11.2507 0
      vertex -6.96457 11.3748 3
      vertex -6.96457 11.3748 0
    endloop
  endfacet
  facet normal -0.987688 0.156436 0
    outer loop
      vertex -6.96457 11.3748 3
      vertex -6.98423 11.2507 0
      vertex -6.98423 11.2507 3
    endloop
  endfacet
  facet normal -0.995562 0.0941056 0
    outer loop
      vertex -6.99605 11.1256 0
      vertex -6.98423 11.2507 3
      vertex -6.98423 11.2507 0
    endloop
  endfacet
  facet normal -0.995562 0.0941056 0
    outer loop
      vertex -6.98423 11.2507 3
      vertex -6.99605 11.1256 0
      vertex -6.99605 11.1256 3
    endloop
  endfacet
  facet normal -0.960294 0.278991 0
    outer loop
      vertex -6.93717 11.4974 0
      vertex -6.90211 11.618 3
      vertex -6.90211 11.618 0
    endloop
  endfacet
  facet normal -0.960294 0.278991 0
    outer loop
      vertex -6.90211 11.618 3
      vertex -6.93717 11.4974 0
      vertex -6.93717 11.4974 3
    endloop
  endfacet
  facet normal 0.860741 -0.509044 0
    outer loop
      vertex 6.68865 -12.0717 3
      vertex 6.75261 -11.9635 0
      vertex 6.75261 -11.9635 3
    endloop
  endfacet
  facet normal 0.860741 -0.509044 0
    outer loop
      vertex 6.75261 -11.9635 0
      vertex 6.68865 -12.0717 3
      vertex 6.68865 -12.0717 0
    endloop
  endfacet
  facet normal 0.917753 -0.397152 0
    outer loop
      vertex 6.80965 -11.8516 3
      vertex 6.85955 -11.7362 0
      vertex 6.85955 -11.7362 3
    endloop
  endfacet
  facet normal 0.917753 -0.397152 0
    outer loop
      vertex 6.85955 -11.7362 0
      vertex 6.80965 -11.8516 3
      vertex 6.80965 -11.8516 0
    endloop
  endfacet
  facet normal 0.987688 -0.156436 0
    outer loop
      vertex 6.96457 -11.3748 3
      vertex 6.98423 -11.2507 0
      vertex 6.98423 -11.2507 3
    endloop
  endfacet
  facet normal 0.987688 -0.156436 0
    outer loop
      vertex 6.98423 -11.2507 0
      vertex 6.96457 -11.3748 3
      vertex 6.96457 -11.3748 0
    endloop
  endfacet
  facet normal 0.995562 -0.0941056 0
    outer loop
      vertex 6.98423 -11.2507 3
      vertex 6.99605 -11.1256 0
      vertex 6.99605 -11.1256 3
    endloop
  endfacet
  facet normal 0.995562 -0.0941056 0
    outer loop
      vertex 6.99605 -11.1256 0
      vertex 6.98423 -11.2507 3
      vertex 6.98423 -11.2507 0
    endloop
  endfacet
  facet normal 0.960294 -0.278991 0
    outer loop
      vertex 6.90211 -11.618 3
      vertex 6.93717 -11.4974 0
      vertex 6.93717 -11.4974 3
    endloop
  endfacet
  facet normal 0.960294 -0.278991 0
    outer loop
      vertex 6.93717 -11.4974 0
      vertex 6.90211 -11.618 3
      vertex 6.90211 -11.618 0
    endloop
  endfacet
  facet normal 0 -1 0
    outer loop
      vertex -5 -13 0
      vertex 5 -13 3
      vertex -5 -13 3
    endloop
  endfacet
  facet normal 0 -1 -0
    outer loop
      vertex 5 -13 3
      vertex -5 -13 0
      vertex 5 -13 0
    endloop
  endfacet
  facet normal -0.397152 -0.917753 0
    outer loop
      vertex -5.85156 -12.8097 0
      vertex -5.73625 -12.8596 3
      vertex -5.85156 -12.8097 3
    endloop
  endfacet
  facet normal -0.397152 -0.917753 -0
    outer loop
      vertex -5.73625 -12.8596 3
      vertex -5.85156 -12.8097 0
      vertex -5.73625 -12.8596 0
    endloop
  endfacet
  facet normal 0.975918 0.21814 0
    outer loop
      vertex 6.96457 11.3748 3
      vertex 6.93717 11.4974 0
      vertex 6.93717 11.4974 3
    endloop
  endfacet
  facet normal 0.975918 0.21814 0
    outer loop
      vertex 6.93717 11.4974 0
      vertex 6.96457 11.3748 3
      vertex 6.96457 11.3748 0
    endloop
  endfacet
  facet normal 0.995562 0.0941056 0
    outer loop
      vertex 6.99605 11.1256 3
      vertex 6.98423 11.2507 0
      vertex 6.98423 11.2507 3
    endloop
  endfacet
  facet normal 0.995562 0.0941056 0
    outer loop
      vertex 6.98423 11.2507 0
      vertex 6.99605 11.1256 3
      vertex 6.99605 11.1256 0
    endloop
  endfacet
  facet normal 0.960294 0.278991 0
    outer loop
      vertex 6.93717 11.4974 3
      vertex 6.90211 11.618 0
      vertex 6.90211 11.618 3
    endloop
  endfacet
  facet normal 0.960294 0.278991 0
    outer loop
      vertex 6.90211 11.618 0
      vertex 6.93717 11.4974 3
      vertex 6.93717 11.4974 0
    endloop
  endfacet
  facet normal 0.827082 0.562081 0
    outer loop
      vertex 6.68865 12.0717 3
      vertex 6.61803 12.1756 0
      vertex 6.61803 12.1756 3
    endloop
  endfacet
  facet normal 0.827082 0.562081 0
    outer loop
      vertex 6.61803 12.1756 0
      vertex 6.68865 12.0717 3
      vertex 6.68865 12.0717 0
    endloop
  endfacet
  facet normal -0.661308 0.750115 0
    outer loop
      vertex -6.27485 12.541 0
      vertex -6.36909 12.4579 3
      vertex -6.27485 12.541 3
    endloop
  endfacet
  facet normal -0.661308 0.750115 0
    outer loop
      vertex -6.36909 12.4579 3
      vertex -6.27485 12.541 0
      vertex -6.36909 12.4579 0
    endloop
  endfacet
  facet normal -0.21814 0.975918 0
    outer loop
      vertex -5.37476 12.9646 0
      vertex -5.49738 12.9372 3
      vertex -5.37476 12.9646 3
    endloop
  endfacet
  facet normal -0.21814 0.975918 0
    outer loop
      vertex -5.49738 12.9372 3
      vertex -5.37476 12.9646 0
      vertex -5.49738 12.9372 0
    endloop
  endfacet
  facet normal -0.0941056 0.995562 0
    outer loop
      vertex -5.12558 12.9961 0
      vertex -5.25067 12.9842 3
      vertex -5.12558 12.9961 3
    endloop
  endfacet
  facet normal -0.0941056 0.995562 0
    outer loop
      vertex -5.25067 12.9842 3
      vertex -5.12558 12.9961 0
      vertex -5.25067 12.9842 0
    endloop
  endfacet
  facet normal -0.975918 0.21814 0
    outer loop
      vertex -6.96457 11.3748 0
      vertex -6.93717 11.4974 3
      vertex -6.93717 11.4974 0
    endloop
  endfacet
  facet normal -0.975918 0.21814 0
    outer loop
      vertex -6.93717 11.4974 3
      vertex -6.96457 11.3748 0
      vertex -6.96457 11.3748 3
    endloop
  endfacet
  facet normal 0.891009 -0.453986 0
    outer loop
      vertex 6.75261 -11.9635 3
      vertex 6.80965 -11.8516 0
      vertex 6.80965 -11.8516 3
    endloop
  endfacet
  facet normal 0.891009 -0.453986 0
    outer loop
      vertex 6.80965 -11.8516 0
      vertex 6.75261 -11.9635 3
      vertex 6.75261 -11.9635 0
    endloop
  endfacet
  facet normal 0.94088 -0.33874 0
    outer loop
      vertex 6.85955 -11.7362 3
      vertex 6.90211 -11.618 0
      vertex 6.90211 -11.618 3
    endloop
  endfacet
  facet normal 0.94088 -0.33874 0
    outer loop
      vertex 6.90211 -11.618 0
      vertex 6.85955 -11.7362 3
      vertex 6.85955 -11.7362 0
    endloop
  endfacet
  facet normal 0.975918 -0.21814 0
    outer loop
      vertex 6.93717 -11.4974 3
      vertex 6.96457 -11.3748 0
      vertex 6.96457 -11.3748 3
    endloop
  endfacet
  facet normal 0.975918 -0.21814 0
    outer loop
      vertex 6.96457 -11.3748 0
      vertex 6.93717 -11.4974 3
      vertex 6.93717 -11.4974 0
    endloop
  endfacet
  facet normal 0.0314165 -0.999506 0
    outer loop
      vertex 5 -13 0
      vertex 5.12558 -12.9961 3
      vertex 5 -13 3
    endloop
  endfacet
  facet normal 0.0314165 -0.999506 0
    outer loop
      vertex 5.12558 -12.9961 3
      vertex 5 -13 0
      vertex 5.12558 -12.9961 0
    endloop
  endfacet
  facet normal 0.0941056 -0.995562 0
    outer loop
      vertex 5.12558 -12.9961 0
      vertex 5.25067 -12.9842 3
      vertex 5.12558 -12.9961 3
    endloop
  endfacet
  facet normal 0.0941056 -0.995562 0
    outer loop
      vertex 5.25067 -12.9842 3
      vertex 5.12558 -12.9961 0
      vertex 5.25067 -12.9842 0
    endloop
  endfacet
  facet normal -0.509044 -0.860741 0
    outer loop
      vertex -6.07165 -12.6887 0
      vertex -5.96351 -12.7526 3
      vertex -6.07165 -12.6887 3
    endloop
  endfacet
  facet normal -0.509044 -0.860741 -0
    outer loop
      vertex -5.96351 -12.7526 3
      vertex -6.07165 -12.6887 0
      vertex -5.96351 -12.7526 0
    endloop
  endfacet
  facet normal -0.33874 -0.94088 0
    outer loop
      vertex -5.73625 -12.8596 0
      vertex -5.61803 -12.9021 3
      vertex -5.73625 -12.8596 3
    endloop
  endfacet
  facet normal -0.33874 -0.94088 -0
    outer loop
      vertex -5.61803 -12.9021 3
      vertex -5.73625 -12.8596 0
      vertex -5.61803 -12.9021 0
    endloop
  endfacet
  facet normal -0.860741 -0.509044 0
    outer loop
      vertex -6.68865 -12.0717 0
      vertex -6.75261 -11.9635 3
      vertex -6.75261 -11.9635 0
    endloop
  endfacet
  facet normal -0.860741 -0.509044 0
    outer loop
      vertex -6.75261 -11.9635 3
      vertex -6.68865 -12.0717 0
      vertex -6.68865 -12.0717 3
    endloop
  endfacet
  facet normal -0.94088 -0.33874 0
    outer loop
      vertex -6.85955 -11.7362 0
      vertex -6.90211 -11.618 3
      vertex -6.90211 -11.618 0
    endloop
  endfacet
  facet normal -0.94088 -0.33874 0
    outer loop
      vertex -6.90211 -11.618 3
      vertex -6.85955 -11.7362 0
      vertex -6.85955 -11.7362 3
    endloop
  endfacet
  facet normal 0.987688 0.156436 0
    outer loop
      vertex 6.98423 11.2507 3
      vertex 6.96457 11.3748 0
      vertex 6.96457 11.3748 3
    endloop
  endfacet
  facet normal 0.987688 0.156436 0
    outer loop
      vertex 6.96457 11.3748 0
      vertex 6.98423 11.2507 3
      vertex 6.98423 11.2507 0
    endloop
  endfacet
  facet normal 0.94088 0.33874 0
    outer loop
      vertex 6.90211 11.618 3
      vertex 6.85955 11.7362 0
      vertex 6.85955 11.7362 3
    endloop
  endfacet
  facet normal 0.94088 0.33874 0
    outer loop
      vertex 6.85955 11.7362 0
      vertex 6.90211 11.618 3
      vertex 6.90211 11.618 0
    endloop
  endfacet
  facet normal 0.750115 0.661308 0
    outer loop
      vertex 6.54103 12.2748 3
      vertex 6.45794 12.3691 0
      vertex 6.45794 12.3691 3
    endloop
  endfacet
  facet normal 0.750115 0.661308 0
    outer loop
      vertex 6.45794 12.3691 0
      vertex 6.54103 12.2748 3
      vertex 6.54103 12.2748 0
    endloop
  endfacet
  facet normal 0.891009 0.453986 0
    outer loop
      vertex 6.80965 11.8516 3
      vertex 6.75261 11.9635 0
      vertex 6.75261 11.9635 3
    endloop
  endfacet
  facet normal 0.891009 0.453986 0
    outer loop
      vertex 6.75261 11.9635 0
      vertex 6.80965 11.8516 3
      vertex 6.80965 11.8516 0
    endloop
  endfacet
  facet normal 0.790153 0.61291 0
    outer loop
      vertex 6.61803 12.1756 3
      vertex 6.54103 12.2748 0
      vertex 6.54103 12.2748 3
    endloop
  endfacet
  facet normal 0.790153 0.61291 0
    outer loop
      vertex 6.54103 12.2748 0
      vertex 6.61803 12.1756 3
      vertex 6.61803 12.1756 0
    endloop
  endfacet
  facet normal 0.61291 0.790153 -0
    outer loop
      vertex 6.27485 12.541 0
      vertex 6.17557 12.618 3
      vertex 6.27485 12.541 3
    endloop
  endfacet
  facet normal 0.61291 0.790153 0
    outer loop
      vertex 6.17557 12.618 3
      vertex 6.27485 12.541 0
      vertex 6.17557 12.618 0
    endloop
  endfacet
  facet normal 0.278991 0.960294 -0
    outer loop
      vertex 5.61803 12.9021 0
      vertex 5.49738 12.9372 3
      vertex 5.61803 12.9021 3
    endloop
  endfacet
  facet normal 0.278991 0.960294 0
    outer loop
      vertex 5.49738 12.9372 3
      vertex 5.61803 12.9021 0
      vertex 5.49738 12.9372 0
    endloop
  endfacet
  facet normal 0.33874 0.94088 -0
    outer loop
      vertex 5.73625 12.8596 0
      vertex 5.61803 12.9021 3
      vertex 5.73625 12.8596 3
    endloop
  endfacet
  facet normal 0.33874 0.94088 0
    outer loop
      vertex 5.61803 12.9021 3
      vertex 5.73625 12.8596 0
      vertex 5.61803 12.9021 0
    endloop
  endfacet
  facet normal -0.750115 0.661308 0
    outer loop
      vertex -6.54103 12.2748 0
      vertex -6.45794 12.3691 3
      vertex -6.45794 12.3691 0
    endloop
  endfacet
  facet normal -0.750115 0.661308 0
    outer loop
      vertex -6.45794 12.3691 3
      vertex -6.54103 12.2748 0
      vertex -6.54103 12.2748 3
    endloop
  endfacet
  facet normal -0.156436 0.987688 0
    outer loop
      vertex -5.25067 12.9842 0
      vertex -5.37476 12.9646 3
      vertex -5.25067 12.9842 3
    endloop
  endfacet
  facet normal -0.156436 0.987688 0
    outer loop
      vertex -5.37476 12.9646 3
      vertex -5.25067 12.9842 0
      vertex -5.37476 12.9646 0
    endloop
  endfacet
  facet normal -0.33874 0.94088 0
    outer loop
      vertex -5.61803 12.9021 0
      vertex -5.73625 12.8596 3
      vertex -5.61803 12.9021 3
    endloop
  endfacet
  facet normal -0.33874 0.94088 0
    outer loop
      vertex -5.73625 12.8596 3
      vertex -5.61803 12.9021 0
      vertex -5.73625 12.8596 0
    endloop
  endfacet
  facet normal -0.397152 0.917753 0
    outer loop
      vertex -5.73625 12.8596 0
      vertex -5.85156 12.8097 3
      vertex -5.73625 12.8596 3
    endloop
  endfacet
  facet normal -0.397152 0.917753 0
    outer loop
      vertex -5.85156 12.8097 3
      vertex -5.73625 12.8596 0
      vertex -5.85156 12.8097 0
    endloop
  endfacet
  facet normal -0.278991 0.960294 0
    outer loop
      vertex -5.49738 12.9372 0
      vertex -5.61803 12.9021 3
      vertex -5.49738 12.9372 3
    endloop
  endfacet
  facet normal -0.278991 0.960294 0
    outer loop
      vertex -5.61803 12.9021 3
      vertex -5.49738 12.9372 0
      vertex -5.61803 12.9021 0
    endloop
  endfacet
  facet normal -0.562081 0.827082 0
    outer loop
      vertex -6.07165 12.6887 0
      vertex -6.17557 12.618 3
      vertex -6.07165 12.6887 3
    endloop
  endfacet
  facet normal -0.562081 0.827082 0
    outer loop
      vertex -6.17557 12.618 3
      vertex -6.07165 12.6887 0
      vertex -6.17557 12.618 0
    endloop
  endfacet
  facet normal -0.509044 0.860741 0
    outer loop
      vertex -5.96351 12.7526 0
      vertex -6.07165 12.6887 3
      vertex -5.96351 12.7526 3
    endloop
  endfacet
  facet normal -0.509044 0.860741 0
    outer loop
      vertex -6.07165 12.6887 3
      vertex -5.96351 12.7526 0
      vertex -6.07165 12.6887 0
    endloop
  endfacet
  facet normal -0.61291 0.790153 0
    outer loop
      vertex -6.17557 12.618 0
      vertex -6.27485 12.541 3
      vertex -6.17557 12.618 3
    endloop
  endfacet
  facet normal -0.61291 0.790153 0
    outer loop
      vertex -6.27485 12.541 3
      vertex -6.17557 12.618 0
      vertex -6.27485 12.541 0
    endloop
  endfacet
  facet normal -0.707107 0.707107 0
    outer loop
      vertex -6.45794 12.3691 0
      vertex -6.36909 12.4579 3
      vertex -6.36909 12.4579 0
    endloop
  endfacet
  facet normal -0.707107 0.707107 0
    outer loop
      vertex -6.36909 12.4579 3
      vertex -6.45794 12.3691 0
      vertex -6.45794 12.3691 3
    endloop
  endfacet
  facet normal -0.790153 0.61291 0
    outer loop
      vertex -6.61803 12.1756 0
      vertex -6.54103 12.2748 3
      vertex -6.54103 12.2748 0
    endloop
  endfacet
  facet normal -0.790153 0.61291 0
    outer loop
      vertex -6.54103 12.2748 3
      vertex -6.61803 12.1756 0
      vertex -6.61803 12.1756 3
    endloop
  endfacet
  facet normal 0.156436 -0.987688 0
    outer loop
      vertex 5.25067 -12.9842 0
      vertex 5.37476 -12.9646 3
      vertex 5.25067 -12.9842 3
    endloop
  endfacet
  facet normal 0.156436 -0.987688 0
    outer loop
      vertex 5.37476 -12.9646 3
      vertex 5.25067 -12.9842 0
      vertex 5.37476 -12.9646 0
    endloop
  endfacet
  facet normal 0.397152 -0.917753 0
    outer loop
      vertex 5.73625 -12.8596 0
      vertex 5.85156 -12.8097 3
      vertex 5.73625 -12.8596 3
    endloop
  endfacet
  facet normal 0.397152 -0.917753 0
    outer loop
      vertex 5.85156 -12.8097 3
      vertex 5.73625 -12.8596 0
      vertex 5.85156 -12.8097 0
    endloop
  endfacet
  facet normal 0.278991 -0.960294 0
    outer loop
      vertex 5.49738 -12.9372 0
      vertex 5.61803 -12.9021 3
      vertex 5.49738 -12.9372 3
    endloop
  endfacet
  facet normal 0.278991 -0.960294 0
    outer loop
      vertex 5.61803 -12.9021 3
      vertex 5.49738 -12.9372 0
      vertex 5.61803 -12.9021 0
    endloop
  endfacet
  facet normal 0.509044 -0.860741 0
    outer loop
      vertex 5.96351 -12.7526 0
      vertex 6.07165 -12.6887 3
      vertex 5.96351 -12.7526 3
    endloop
  endfacet
  facet normal 0.509044 -0.860741 0
    outer loop
      vertex 6.07165 -12.6887 3
      vertex 5.96351 -12.7526 0
      vertex 6.07165 -12.6887 0
    endloop
  endfacet
  facet normal 0.61291 -0.790153 0
    outer loop
      vertex 6.17557 -12.618 0
      vertex 6.27485 -12.541 3
      vertex 6.17557 -12.618 3
    endloop
  endfacet
  facet normal 0.61291 -0.790153 0
    outer loop
      vertex 6.27485 -12.541 3
      vertex 6.17557 -12.618 0
      vertex 6.27485 -12.541 0
    endloop
  endfacet
  facet normal 0.707107 -0.707107 0
    outer loop
      vertex 6.36909 -12.4579 3
      vertex 6.45794 -12.3691 0
      vertex 6.45794 -12.3691 3
    endloop
  endfacet
  facet normal 0.707107 -0.707107 0
    outer loop
      vertex 6.45794 -12.3691 0
      vertex 6.36909 -12.4579 3
      vertex 6.36909 -12.4579 0
    endloop
  endfacet
  facet normal 0.790153 -0.61291 0
    outer loop
      vertex 6.54103 -12.2748 3
      vertex 6.61803 -12.1756 0
      vertex 6.61803 -12.1756 3
    endloop
  endfacet
  facet normal 0.790153 -0.61291 0
    outer loop
      vertex 6.61803 -12.1756 0
      vertex 6.54103 -12.2748 3
      vertex 6.54103 -12.2748 0
    endloop
  endfacet
  facet normal -0.661308 -0.750115 0
    outer loop
      vertex -6.36909 -12.4579 0
      vertex -6.27485 -12.541 3
      vertex -6.36909 -12.4579 3
    endloop
  endfacet
  facet normal -0.661308 -0.750115 -0
    outer loop
      vertex -6.27485 -12.541 3
      vertex -6.36909 -12.4579 0
      vertex -6.27485 -12.541 0
    endloop
  endfacet
  facet normal -0.562081 -0.827082 0
    outer loop
      vertex -6.17557 -12.618 0
      vertex -6.07165 -12.6887 3
      vertex -6.17557 -12.618 3
    endloop
  endfacet
  facet normal -0.562081 -0.827082 -0
    outer loop
      vertex -6.07165 -12.6887 3
      vertex -6.17557 -12.618 0
      vertex -6.07165 -12.6887 0
    endloop
  endfacet
  facet normal -0.453986 -0.891009 0
    outer loop
      vertex -5.96351 -12.7526 0
      vertex -5.85156 -12.8097 3
      vertex -5.96351 -12.7526 3
    endloop
  endfacet
  facet normal -0.453986 -0.891009 -0
    outer loop
      vertex -5.85156 -12.8097 3
      vertex -5.96351 -12.7526 0
      vertex -5.85156 -12.8097 0
    endloop
  endfacet
  facet normal -0.278991 -0.960294 0
    outer loop
      vertex -5.61803 -12.9021 0
      vertex -5.49738 -12.9372 3
      vertex -5.61803 -12.9021 3
    endloop
  endfacet
  facet normal -0.278991 -0.960294 -0
    outer loop
      vertex -5.49738 -12.9372 3
      vertex -5.61803 -12.9021 0
      vertex -5.49738 -12.9372 0
    endloop
  endfacet
  facet normal -0.21814 -0.975918 0
    outer loop
      vertex -5.49738 -12.9372 0
      vertex -5.37476 -12.9646 3
      vertex -5.49738 -12.9372 3
    endloop
  endfacet
  facet normal -0.21814 -0.975918 -0
    outer loop
      vertex -5.37476 -12.9646 3
      vertex -5.49738 -12.9372 0
      vertex -5.37476 -12.9646 0
    endloop
  endfacet
  facet normal -0.0941056 -0.995562 0
    outer loop
      vertex -5.25067 -12.9842 0
      vertex -5.12558 -12.9961 3
      vertex -5.25067 -12.9842 3
    endloop
  endfacet
  facet normal -0.0941056 -0.995562 -0
    outer loop
      vertex -5.12558 -12.9961 3
      vertex -5.25067 -12.9842 0
      vertex -5.12558 -12.9961 0
    endloop
  endfacet
  facet normal -0.827082 -0.562081 0
    outer loop
      vertex -6.61803 -12.1756 0
      vertex -6.68865 -12.0717 3
      vertex -6.68865 -12.0717 0
    endloop
  endfacet
  facet normal -0.827082 -0.562081 0
    outer loop
      vertex -6.68865 -12.0717 3
      vertex -6.61803 -12.1756 0
      vertex -6.61803 -12.1756 3
    endloop
  endfacet
  facet normal -0.790153 -0.61291 0
    outer loop
      vertex -6.54103 -12.2748 0
      vertex -6.61803 -12.1756 3
      vertex -6.61803 -12.1756 0
    endloop
  endfacet
  facet normal -0.790153 -0.61291 0
    outer loop
      vertex -6.61803 -12.1756 3
      vertex -6.54103 -12.2748 0
      vertex -6.54103 -12.2748 3
    endloop
  endfacet
  facet normal -0.707107 -0.707107 0
    outer loop
      vertex -6.36909 -12.4579 0
      vertex -6.45794 -12.3691 3
      vertex -6.45794 -12.3691 0
    endloop
  endfacet
  facet normal -0.707107 -0.707107 0
    outer loop
      vertex -6.45794 -12.3691 3
      vertex -6.36909 -12.4579 0
      vertex -6.36909 -12.4579 3
    endloop
  endfacet
  facet normal -0.917753 -0.397152 0
    outer loop
      vertex -6.80965 -11.8516 0
      vertex -6.85955 -11.7362 3
      vertex -6.85955 -11.7362 0
    endloop
  endfacet
  facet normal -0.917753 -0.397152 0
    outer loop
      vertex -6.85955 -11.7362 3
      vertex -6.80965 -11.8516 0
      vertex -6.80965 -11.8516 3
    endloop
  endfacet
  facet normal -0.960294 -0.278991 0
    outer loop
      vertex -6.90211 -11.618 0
      vertex -6.93717 -11.4974 3
      vertex -6.93717 -11.4974 0
    endloop
  endfacet
  facet normal -0.960294 -0.278991 0
    outer loop
      vertex -6.93717 -11.4974 3
      vertex -6.90211 -11.618 0
      vertex -6.90211 -11.618 3
    endloop
  endfacet
  facet normal -0.987688 -0.156436 0
    outer loop
      vertex -6.96457 -11.3748 0
      vertex -6.98423 -11.2507 3
      vertex -6.98423 -11.2507 0
    endloop
  endfacet
  facet normal -0.987688 -0.156436 0
    outer loop
      vertex -6.98423 -11.2507 3
      vertex -6.96457 -11.3748 0
      vertex -6.96457 -11.3748 3
    endloop
  endfacet
  facet normal 0.860741 0.509044 0
    outer loop
      vertex 6.75261 11.9635 3
      vertex 6.68865 12.0717 0
      vertex 6.68865 12.0717 3
    endloop
  endfacet
  facet normal 0.860741 0.509044 0
    outer loop
      vertex 6.68865 12.0717 0
      vertex 6.75261 11.9635 3
      vertex 6.75261 11.9635 0
    endloop
  endfacet
  facet normal 0.453986 0.891009 -0
    outer loop
      vertex 5.96351 12.7526 0
      vertex 5.85156 12.8097 3
      vertex 5.96351 12.7526 3
    endloop
  endfacet
  facet normal 0.453986 0.891009 0
    outer loop
      vertex 5.85156 12.8097 3
      vertex 5.96351 12.7526 0
      vertex 5.85156 12.8097 0
    endloop
  endfacet
  facet normal 0.562081 0.827082 -0
    outer loop
      vertex 6.17557 12.618 0
      vertex 6.07165 12.6887 3
      vertex 6.17557 12.618 3
    endloop
  endfacet
  facet normal 0.562081 0.827082 0
    outer loop
      vertex 6.07165 12.6887 3
      vertex 6.17557 12.618 0
      vertex 6.07165 12.6887 0
    endloop
  endfacet
  facet normal 0.509044 0.860741 -0
    outer loop
      vertex 6.07165 12.6887 0
      vertex 5.96351 12.7526 3
      vertex 6.07165 12.6887 3
    endloop
  endfacet
  facet normal 0.509044 0.860741 0
    outer loop
      vertex 5.96351 12.7526 3
      vertex 6.07165 12.6887 0
      vertex 5.96351 12.7526 0
    endloop
  endfacet
  facet normal 0.156436 0.987688 -0
    outer loop
      vertex 5.37476 12.9646 0
      vertex 5.25067 12.9842 3
      vertex 5.37476 12.9646 3
    endloop
  endfacet
  facet normal 0.156436 0.987688 0
    outer loop
      vertex 5.25067 12.9842 3
      vertex 5.37476 12.9646 0
      vertex 5.25067 12.9842 0
    endloop
  endfacet
  facet normal 0.21814 0.975918 -0
    outer loop
      vertex 5.49738 12.9372 0
      vertex 5.37476 12.9646 3
      vertex 5.49738 12.9372 3
    endloop
  endfacet
  facet normal 0.21814 0.975918 0
    outer loop
      vertex 5.37476 12.9646 3
      vertex 5.49738 12.9372 0
      vertex 5.37476 12.9646 0
    endloop
  endfacet
  facet normal 0.21814 -0.975918 0
    outer loop
      vertex 5.37476 -12.9646 0
      vertex 5.49738 -12.9372 3
      vertex 5.37476 -12.9646 3
    endloop
  endfacet
  facet normal 0.21814 -0.975918 0
    outer loop
      vertex 5.49738 -12.9372 3
      vertex 5.37476 -12.9646 0
      vertex 5.49738 -12.9372 0
    endloop
  endfacet
  facet normal 0.453986 -0.891009 0
    outer loop
      vertex 5.85156 -12.8097 0
      vertex 5.96351 -12.7526 3
      vertex 5.85156 -12.8097 3
    endloop
  endfacet
  facet normal 0.453986 -0.891009 0
    outer loop
      vertex 5.96351 -12.7526 3
      vertex 5.85156 -12.8097 0
      vertex 5.96351 -12.7526 0
    endloop
  endfacet
  facet normal 0.33874 -0.94088 0
    outer loop
      vertex 5.61803 -12.9021 0
      vertex 5.73625 -12.8596 3
      vertex 5.61803 -12.9021 3
    endloop
  endfacet
  facet normal 0.33874 -0.94088 0
    outer loop
      vertex 5.73625 -12.8596 3
      vertex 5.61803 -12.9021 0
      vertex 5.73625 -12.8596 0
    endloop
  endfacet
  facet normal 0.562081 -0.827082 0
    outer loop
      vertex 6.07165 -12.6887 0
      vertex 6.17557 -12.618 3
      vertex 6.07165 -12.6887 3
    endloop
  endfacet
  facet normal 0.562081 -0.827082 0
    outer loop
      vertex 6.17557 -12.618 3
      vertex 6.07165 -12.6887 0
      vertex 6.17557 -12.618 0
    endloop
  endfacet
  facet normal 0.661308 -0.750115 0
    outer loop
      vertex 6.27485 -12.541 0
      vertex 6.36909 -12.4579 3
      vertex 6.27485 -12.541 3
    endloop
  endfacet
  facet normal 0.661308 -0.750115 0
    outer loop
      vertex 6.36909 -12.4579 3
      vertex 6.27485 -12.541 0
      vertex 6.36909 -12.4579 0
    endloop
  endfacet
  facet normal 0.750115 -0.661308 0
    outer loop
      vertex 6.45794 -12.3691 3
      vertex 6.54103 -12.2748 0
      vertex 6.54103 -12.2748 3
    endloop
  endfacet
  facet normal 0.750115 -0.661308 0
    outer loop
      vertex 6.54103 -12.2748 0
      vertex 6.45794 -12.3691 3
      vertex 6.45794 -12.3691 0
    endloop
  endfacet
  facet normal -0.61291 -0.790153 0
    outer loop
      vertex -6.27485 -12.541 0
      vertex -6.17557 -12.618 3
      vertex -6.27485 -12.541 3
    endloop
  endfacet
  facet normal -0.61291 -0.790153 -0
    outer loop
      vertex -6.17557 -12.618 3
      vertex -6.27485 -12.541 0
      vertex -6.17557 -12.618 0
    endloop
  endfacet
  facet normal -0.156436 -0.987688 0
    outer loop
      vertex -5.37476 -12.9646 0
      vertex -5.25067 -12.9842 3
      vertex -5.37476 -12.9646 3
    endloop
  endfacet
  facet normal -0.156436 -0.987688 -0
    outer loop
      vertex -5.25067 -12.9842 3
      vertex -5.37476 -12.9646 0
      vertex -5.25067 -12.9842 0
    endloop
  endfacet
  facet normal -0.750115 -0.661308 0
    outer loop
      vertex -6.45794 -12.3691 0
      vertex -6.54103 -12.2748 3
      vertex -6.54103 -12.2748 0
    endloop
  endfacet
  facet normal -0.750115 -0.661308 0
    outer loop
      vertex -6.54103 -12.2748 3
      vertex -6.45794 -12.3691 0
      vertex -6.45794 -12.3691 3
    endloop
  endfacet
  facet normal -0.891009 -0.453986 0
    outer loop
      vertex -6.75261 -11.9635 0
      vertex -6.80965 -11.8516 3
      vertex -6.80965 -11.8516 0
    endloop
  endfacet
  facet normal -0.891009 -0.453986 0
    outer loop
      vertex -6.80965 -11.8516 3
      vertex -6.75261 -11.9635 0
      vertex -6.75261 -11.9635 3
    endloop
  endfacet
  facet normal -0.975918 -0.21814 0
    outer loop
      vertex -6.93717 -11.4974 0
      vertex -6.96457 -11.3748 3
      vertex -6.96457 -11.3748 0
    endloop
  endfacet
  facet normal -0.975918 -0.21814 0
    outer loop
      vertex -6.96457 -11.3748 3
      vertex -6.93717 -11.4974 0
      vertex -6.93717 -11.4974 3
    endloop
  endfacet
  facet normal 0.917753 0.397152 0
    outer loop
      vertex 6.85955 11.7362 3
      vertex 6.80965 11.8516 0
      vertex 6.80965 11.8516 3
    endloop
  endfacet
  facet normal 0.917753 0.397152 0
    outer loop
      vertex 6.80965 11.8516 0
      vertex 6.85955 11.7362 3
      vertex 6.85955 11.7362 0
    endloop
  endfacet
  facet normal 0.661308 0.750115 -0
    outer loop
      vertex 6.36909 12.4579 0
      vertex 6.27485 12.541 3
      vertex 6.36909 12.4579 3
    endloop
  endfacet
  facet normal 0.661308 0.750115 0
    outer loop
      vertex 6.27485 12.541 3
      vertex 6.36909 12.4579 0
      vertex 6.27485 12.541 0
    endloop
  endfacet
endsolid OpenSCAD_Model
